%TF.GenerationSoftware,KiCad,Pcbnew,(6.0.7-1)-1*%
%TF.CreationDate,2022-09-04T19:21:53+10:00*%
%TF.ProjectId,Dusk 36,4475736b-2033-4362-9e6b-696361645f70,v1.0.0*%
%TF.SameCoordinates,Original*%
%TF.FileFunction,Soldermask,Bot*%
%TF.FilePolarity,Negative*%
%FSLAX46Y46*%
G04 Gerber Fmt 4.6, Leading zero omitted, Abs format (unit mm)*
G04 Created by KiCad (PCBNEW (6.0.7-1)-1) date 2022-09-04 19:21:53*
%MOMM*%
%LPD*%
G01*
G04 APERTURE LIST*
G04 Aperture macros list*
%AMRoundRect*
0 Rectangle with rounded corners*
0 $1 Rounding radius*
0 $2 $3 $4 $5 $6 $7 $8 $9 X,Y pos of 4 corners*
0 Add a 4 corners polygon primitive as box body*
4,1,4,$2,$3,$4,$5,$6,$7,$8,$9,$2,$3,0*
0 Add four circle primitives for the rounded corners*
1,1,$1+$1,$2,$3*
1,1,$1+$1,$4,$5*
1,1,$1+$1,$6,$7*
1,1,$1+$1,$8,$9*
0 Add four rect primitives between the rounded corners*
20,1,$1+$1,$2,$3,$4,$5,0*
20,1,$1+$1,$4,$5,$6,$7,0*
20,1,$1+$1,$6,$7,$8,$9,0*
20,1,$1+$1,$8,$9,$2,$3,0*%
G04 Aperture macros list end*
%ADD10C,1.000000*%
%ADD11C,2.100000*%
%ADD12C,1.801800*%
%ADD13C,3.529000*%
%ADD14C,2.132000*%
%ADD15C,3.100000*%
%ADD16RoundRect,0.050000X-1.300000X-1.300000X1.300000X-1.300000X1.300000X1.300000X-1.300000X1.300000X0*%
%ADD17RoundRect,0.050000X-0.450000X-0.600000X0.450000X-0.600000X0.450000X0.600000X-0.450000X0.600000X0*%
%ADD18RoundRect,0.050000X-0.500581X-0.558497X0.395994X-0.636937X0.500581X0.558497X-0.395994X0.636937X0*%
%ADD19RoundRect,0.050000X-1.666227X-0.776974X0.776974X-1.666227X1.666227X0.776974X-0.776974X1.666227X0*%
%ADD20RoundRect,0.050000X0.233382X-0.712764X0.749601X0.024473X-0.233382X0.712764X-0.749601X-0.024473X0*%
%ADD21RoundRect,0.050000X-0.750000X-0.750000X0.750000X-0.750000X0.750000X0.750000X-0.750000X0.750000X0*%
%ADD22RoundRect,0.050000X-0.876300X0.876300X-0.876300X-0.876300X0.876300X-0.876300X0.876300X0.876300X0*%
%ADD23C,1.852600*%
%ADD24RoundRect,0.050000X0.319248X-1.810547X1.810547X0.319248X-0.319248X1.810547X-1.810547X-0.319248X0*%
%ADD25RoundRect,0.050000X-1.408356X-1.181751X1.181751X-1.408356X1.408356X1.181751X-1.181751X1.408356X0*%
%ADD26RoundRect,0.050000X-0.628074X-0.409907X0.217650X-0.717725X0.628074X0.409907X-0.217650X0.717725X0*%
%ADD27RoundRect,0.050000X-0.450000X0.450000X-0.450000X-0.450000X0.450000X-0.450000X0.450000X0.450000X0*%
%ADD28RoundRect,0.050000X-0.625000X0.450000X-0.625000X-0.450000X0.625000X-0.450000X0.625000X0.450000X0*%
G04 APERTURE END LIST*
%TO.C,G\u002A\u002A\u002A*%
G36*
X166795637Y-114238302D02*
G01*
X167072464Y-114238332D01*
X167323316Y-114238400D01*
X167549506Y-114238522D01*
X167752346Y-114238711D01*
X167933148Y-114238985D01*
X168093224Y-114239358D01*
X168233886Y-114239844D01*
X168356446Y-114240461D01*
X168462216Y-114241222D01*
X168552509Y-114242143D01*
X168628636Y-114243240D01*
X168691909Y-114244527D01*
X168743641Y-114246020D01*
X168785144Y-114247734D01*
X168817729Y-114249685D01*
X168842710Y-114251887D01*
X168861397Y-114254356D01*
X168875103Y-114257107D01*
X168885141Y-114260156D01*
X168892821Y-114263518D01*
X168899457Y-114267207D01*
X168959664Y-114314255D01*
X168996671Y-114373917D01*
X169012567Y-114450927D01*
X169013191Y-114462061D01*
X169003909Y-114544043D01*
X168970785Y-114611958D01*
X168915908Y-114662840D01*
X168841367Y-114693728D01*
X168823861Y-114694902D01*
X168778601Y-114696095D01*
X168707417Y-114697219D01*
X168611850Y-114698267D01*
X168493445Y-114699233D01*
X168353744Y-114700112D01*
X168194291Y-114700898D01*
X168016629Y-114701585D01*
X167822301Y-114702167D01*
X167612851Y-114702638D01*
X167389821Y-114702992D01*
X167154755Y-114703223D01*
X166909196Y-114703325D01*
X166654688Y-114703293D01*
X166392772Y-114703120D01*
X166105559Y-114702844D01*
X165821891Y-114702538D01*
X165564599Y-114702209D01*
X165332367Y-114701843D01*
X165123879Y-114701424D01*
X164937816Y-114700939D01*
X164772861Y-114700372D01*
X164627699Y-114699708D01*
X164501011Y-114698933D01*
X164391482Y-114698031D01*
X164297793Y-114696988D01*
X164218627Y-114695789D01*
X164152669Y-114694420D01*
X164098600Y-114692865D01*
X164055104Y-114691109D01*
X164020864Y-114689138D01*
X163994562Y-114686937D01*
X163974882Y-114684491D01*
X163960507Y-114681786D01*
X163950119Y-114678806D01*
X163942402Y-114675536D01*
X163888058Y-114635560D01*
X163843130Y-114572337D01*
X163818506Y-114495763D01*
X163816761Y-114455479D01*
X163833280Y-114384658D01*
X163870906Y-114320289D01*
X163925358Y-114271366D01*
X163978544Y-114238294D01*
X166491524Y-114238294D01*
X166795637Y-114238302D01*
G37*
G36*
X169587660Y-118300224D02*
G01*
X169562351Y-118380621D01*
X169543058Y-118411826D01*
X169494201Y-118455776D01*
X169434282Y-118475868D01*
X169366978Y-118471979D01*
X169295968Y-118443989D01*
X169224928Y-118391775D01*
X169220485Y-118387683D01*
X169187168Y-118357867D01*
X169169455Y-118345926D01*
X169162433Y-118350063D01*
X169161184Y-118368480D01*
X169161118Y-118370671D01*
X169149472Y-118405224D01*
X169123875Y-118438990D01*
X169112567Y-118448925D01*
X169085876Y-118464614D01*
X169050887Y-118471641D01*
X168997381Y-118472733D01*
X168898169Y-118459127D01*
X168801050Y-118420533D01*
X168716448Y-118360366D01*
X168649040Y-118281996D01*
X168603500Y-118188793D01*
X168594359Y-118157254D01*
X168579605Y-118045465D01*
X168587767Y-117927806D01*
X168617823Y-117811858D01*
X168668749Y-117705201D01*
X168708262Y-117654088D01*
X168783274Y-117590313D01*
X168877628Y-117536345D01*
X168986025Y-117495062D01*
X169103169Y-117469340D01*
X169245034Y-117461910D01*
X169381491Y-117479869D01*
X169507731Y-117521480D01*
X169621295Y-117584672D01*
X169719724Y-117667373D01*
X169800560Y-117767509D01*
X169861343Y-117883010D01*
X169899616Y-118011804D01*
X169912920Y-118151817D01*
X169912055Y-118195097D01*
X169895876Y-118329516D01*
X169858385Y-118446479D01*
X169798471Y-118548726D01*
X169715018Y-118639000D01*
X169648725Y-118689585D01*
X169532842Y-118748099D01*
X169398545Y-118784933D01*
X169347942Y-118790772D01*
X169269152Y-118792790D01*
X169184511Y-118789327D01*
X169105521Y-118780926D01*
X169043685Y-118768133D01*
X169026397Y-118762472D01*
X169000466Y-118748129D01*
X168990907Y-118726339D01*
X168996403Y-118690883D01*
X169015641Y-118635539D01*
X169027512Y-118610453D01*
X169045062Y-118600971D01*
X169078133Y-118606626D01*
X169090791Y-118609098D01*
X169135921Y-118613943D01*
X169196277Y-118617275D01*
X169262380Y-118618483D01*
X169279366Y-118618425D01*
X169345183Y-118616563D01*
X169393949Y-118610847D01*
X169435410Y-118599599D01*
X169479314Y-118581142D01*
X169561396Y-118532915D01*
X169637200Y-118459934D01*
X169694646Y-118365701D01*
X169713169Y-118321316D01*
X169724757Y-118277599D01*
X169730386Y-118225979D01*
X169731915Y-118155995D01*
X169731824Y-118128237D01*
X169729635Y-118069163D01*
X169722890Y-118024012D01*
X169709405Y-117981895D01*
X169686995Y-117931920D01*
X169662819Y-117886550D01*
X169589562Y-117788605D01*
X169499655Y-117712817D01*
X169395661Y-117660267D01*
X169280145Y-117632036D01*
X169155669Y-117629204D01*
X169024796Y-117652851D01*
X169019622Y-117654318D01*
X168962468Y-117675116D01*
X168914958Y-117704568D01*
X168864337Y-117750432D01*
X168813056Y-117809885D01*
X168779305Y-117872175D01*
X168761636Y-117944213D01*
X168756721Y-118034792D01*
X168757316Y-118056631D01*
X168769860Y-118139795D01*
X168796676Y-118210174D01*
X168835123Y-118263796D01*
X168882558Y-118296688D01*
X168936339Y-118304877D01*
X168964752Y-118299213D01*
X168979156Y-118283035D01*
X168984911Y-118247268D01*
X168985016Y-118232330D01*
X168981426Y-118186576D01*
X168973766Y-118122744D01*
X168963018Y-118047496D01*
X168954944Y-117997254D01*
X169137122Y-117997254D01*
X169139107Y-118029301D01*
X169147524Y-118082192D01*
X169154900Y-118120365D01*
X169168974Y-118166991D01*
X169190571Y-118204269D01*
X169225520Y-118244316D01*
X169244529Y-118262870D01*
X169295649Y-118298859D01*
X169338772Y-118308731D01*
X169371545Y-118293244D01*
X169391617Y-118253154D01*
X169396637Y-118189218D01*
X169392126Y-118150276D01*
X169371309Y-118084145D01*
X169337654Y-118027079D01*
X169295217Y-117982851D01*
X169248051Y-117955239D01*
X169200212Y-117948016D01*
X169155756Y-117964957D01*
X169154544Y-117965854D01*
X169142093Y-117978592D01*
X169137122Y-117997254D01*
X168954944Y-117997254D01*
X168950161Y-117967495D01*
X168936175Y-117889403D01*
X168922040Y-117819882D01*
X168920511Y-117798568D01*
X168933515Y-117789322D01*
X168968223Y-117787355D01*
X168973010Y-117787446D01*
X169015864Y-117794989D01*
X169047638Y-117810945D01*
X169063766Y-117823790D01*
X169082303Y-117826130D01*
X169109708Y-117810945D01*
X169154114Y-117794340D01*
X169214621Y-117788022D01*
X169279296Y-117792451D01*
X169336662Y-117807787D01*
X169356817Y-117817192D01*
X169429360Y-117868609D01*
X169491339Y-117939438D01*
X169540457Y-118023848D01*
X169574415Y-118116004D01*
X169587258Y-118189218D01*
X169590916Y-118210074D01*
X169587660Y-118300224D01*
G37*
G36*
X166536327Y-117993360D02*
G01*
X166551221Y-118040630D01*
X166573473Y-118111304D01*
X166591772Y-118169489D01*
X166604537Y-118210156D01*
X166610187Y-118228277D01*
X166613208Y-118230577D01*
X166615706Y-118212509D01*
X166616620Y-118205993D01*
X166625063Y-118172874D01*
X166640874Y-118120552D01*
X166662276Y-118054753D01*
X166687492Y-117981205D01*
X166758137Y-117780127D01*
X166875426Y-117775928D01*
X166893303Y-117775395D01*
X166944012Y-117775222D01*
X166979409Y-117777163D01*
X166992715Y-117780931D01*
X166992709Y-117781034D01*
X166986850Y-117797089D01*
X166971052Y-117836034D01*
X166946793Y-117894341D01*
X166915550Y-117968483D01*
X166878803Y-118054930D01*
X166838029Y-118150156D01*
X166683343Y-118510178D01*
X166550995Y-118510178D01*
X166402956Y-118152381D01*
X166363848Y-118057452D01*
X166328508Y-117970879D01*
X166298531Y-117896630D01*
X166275357Y-117838297D01*
X166260425Y-117799470D01*
X166255176Y-117783741D01*
X166255481Y-117782943D01*
X166272381Y-117777852D01*
X166309993Y-117774259D01*
X166361140Y-117772899D01*
X166466843Y-117772899D01*
X166536327Y-117993360D01*
G37*
G36*
X168401386Y-118350482D02*
G01*
X168361889Y-118428738D01*
X168354970Y-118437459D01*
X168317946Y-118470427D01*
X168273542Y-118497089D01*
X168270314Y-118498532D01*
X168187113Y-118522022D01*
X168102784Y-118522468D01*
X168024556Y-118500774D01*
X167959655Y-118457844D01*
X167921870Y-118421805D01*
X167913032Y-118465992D01*
X167907827Y-118487314D01*
X167896838Y-118502916D01*
X167873423Y-118509087D01*
X167829343Y-118510178D01*
X167754490Y-118510178D01*
X167763861Y-118347543D01*
X167765039Y-118324352D01*
X167767664Y-118251407D01*
X167769927Y-118159160D01*
X167770689Y-118114257D01*
X167975755Y-118114257D01*
X167975826Y-118153776D01*
X167976792Y-118213604D01*
X167979748Y-118253641D01*
X167985762Y-118279954D01*
X167995903Y-118298609D01*
X168011239Y-118315673D01*
X168047260Y-118340261D01*
X168101106Y-118350293D01*
X168154201Y-118334784D01*
X168162607Y-118329056D01*
X168192783Y-118289807D01*
X168212130Y-118233061D01*
X168220738Y-118166237D01*
X168218696Y-118096755D01*
X168206091Y-118032033D01*
X168183013Y-117979491D01*
X168149552Y-117946547D01*
X168129542Y-117938118D01*
X168069736Y-117929135D01*
X168008212Y-117938023D01*
X167998950Y-117941402D01*
X167988026Y-117949586D01*
X167981210Y-117965724D01*
X167977536Y-117995056D01*
X167976039Y-118042820D01*
X167975755Y-118114257D01*
X167770689Y-118114257D01*
X167771704Y-118054384D01*
X167772869Y-117943852D01*
X167773299Y-117834338D01*
X167773364Y-117483769D01*
X167975755Y-117483769D01*
X167975755Y-117755130D01*
X168082497Y-117754442D01*
X168160757Y-117759034D01*
X168247921Y-117781909D01*
X168316852Y-117824975D01*
X168369970Y-117889371D01*
X168400646Y-117954252D01*
X168424880Y-118049790D01*
X168433001Y-118153008D01*
X168431989Y-118166237D01*
X168425130Y-118255905D01*
X168401386Y-118350482D01*
G37*
G36*
X163870120Y-118510178D02*
G01*
X163667730Y-118510178D01*
X163667730Y-117772899D01*
X163870120Y-117772899D01*
X163870120Y-118510178D01*
G37*
G36*
X166557035Y-108451576D02*
G01*
X166705751Y-108458404D01*
X166835458Y-108469806D01*
X167157171Y-108521281D01*
X167474445Y-108600264D01*
X167781222Y-108705333D01*
X168076201Y-108835619D01*
X168358080Y-108990254D01*
X168625557Y-109168372D01*
X168877329Y-109369102D01*
X169112096Y-109591578D01*
X169328556Y-109834931D01*
X169525405Y-110098293D01*
X169701343Y-110380796D01*
X169752192Y-110475518D01*
X169831695Y-110641947D01*
X169907510Y-110821716D01*
X169976128Y-111005780D01*
X170034037Y-111185096D01*
X170077729Y-111350616D01*
X170098290Y-111440969D01*
X162702008Y-111440969D01*
X162723837Y-111343388D01*
X162723978Y-111342759D01*
X162765085Y-111185900D01*
X162820492Y-111014254D01*
X162886963Y-110835980D01*
X162961265Y-110659236D01*
X163040163Y-110492182D01*
X163120423Y-110342974D01*
X163270479Y-110104522D01*
X163467215Y-109840252D01*
X163683551Y-109596109D01*
X163918193Y-109372945D01*
X164169847Y-109171612D01*
X164437218Y-108992963D01*
X164719013Y-108837850D01*
X165013937Y-108707126D01*
X165320696Y-108601642D01*
X165637996Y-108522251D01*
X165964543Y-108469806D01*
X166092221Y-108458536D01*
X166240731Y-108451642D01*
X166398848Y-108449322D01*
X166557035Y-108451576D01*
G37*
G36*
X163853781Y-117480275D02*
G01*
X163887009Y-117514848D01*
X163899033Y-117565520D01*
X163893190Y-117602472D01*
X163870120Y-117642790D01*
X163833160Y-117664282D01*
X163780802Y-117672508D01*
X163727363Y-117665145D01*
X163684912Y-117642227D01*
X163670665Y-117626158D01*
X163652803Y-117581198D01*
X163658571Y-117535371D01*
X163685871Y-117496199D01*
X163732604Y-117471207D01*
X163740786Y-117469101D01*
X163803618Y-117464220D01*
X163853781Y-117480275D01*
G37*
G36*
X164318190Y-117928305D02*
G01*
X164317696Y-118051339D01*
X164316264Y-118165228D01*
X164313991Y-118262906D01*
X164310974Y-118341199D01*
X164307307Y-118396932D01*
X164303088Y-118426930D01*
X164285699Y-118466688D01*
X164248957Y-118502247D01*
X164211389Y-118515363D01*
X164148776Y-118523045D01*
X164079310Y-118520815D01*
X164014365Y-118508374D01*
X163996304Y-118502771D01*
X163971765Y-118490646D01*
X163964131Y-118470684D01*
X163966895Y-118432478D01*
X163968813Y-118416082D01*
X163975910Y-118370255D01*
X163985454Y-118346218D01*
X164001082Y-118338397D01*
X164026430Y-118341218D01*
X164044426Y-118344646D01*
X164063587Y-118346187D01*
X164078535Y-118341790D01*
X164089839Y-118328585D01*
X164098066Y-118303699D01*
X164103782Y-118264261D01*
X164107555Y-118207398D01*
X164109953Y-118130240D01*
X164111543Y-118029914D01*
X164112891Y-117903549D01*
X164117131Y-117483769D01*
X164318270Y-117483769D01*
X164318190Y-117928305D01*
G37*
G36*
X167655034Y-118281226D02*
G01*
X167649857Y-118366774D01*
X167623260Y-118432979D01*
X167575090Y-118480080D01*
X167505195Y-118508314D01*
X167478453Y-118513323D01*
X167395307Y-118514044D01*
X167318827Y-118493586D01*
X167257150Y-118453740D01*
X167244327Y-118441768D01*
X167222777Y-118426442D01*
X167211229Y-118434205D01*
X167202334Y-118466809D01*
X167201379Y-118471105D01*
X167194337Y-118493289D01*
X167181078Y-118504934D01*
X167154038Y-118509433D01*
X167105651Y-118510178D01*
X167018494Y-118510178D01*
X167030459Y-118470423D01*
X167033789Y-118449211D01*
X167037304Y-118402022D01*
X167040142Y-118336140D01*
X167042073Y-118257104D01*
X167042283Y-118234220D01*
X167238475Y-118234220D01*
X167248031Y-118273179D01*
X167282954Y-118313731D01*
X167330670Y-118343257D01*
X167379821Y-118348191D01*
X167426987Y-118324683D01*
X167450427Y-118296343D01*
X167450620Y-118262107D01*
X167449514Y-118258183D01*
X167423625Y-118222164D01*
X167374025Y-118199811D01*
X167302849Y-118192136D01*
X167280407Y-118192346D01*
X167251861Y-118195993D01*
X167240509Y-118208235D01*
X167238475Y-118234220D01*
X167042283Y-118234220D01*
X167042869Y-118170451D01*
X167043023Y-118118053D01*
X167043824Y-118036734D01*
X167045673Y-117977076D01*
X167049029Y-117934308D01*
X167054350Y-117903659D01*
X167062093Y-117880359D01*
X167072718Y-117859637D01*
X167080038Y-117847781D01*
X167117519Y-117805664D01*
X167167517Y-117778111D01*
X167235070Y-117763106D01*
X167325214Y-117758636D01*
X167341192Y-117758838D01*
X167408134Y-117762849D01*
X167476002Y-117771023D01*
X167537340Y-117782080D01*
X167584693Y-117794736D01*
X167610605Y-117807711D01*
X167611175Y-117808486D01*
X167611409Y-117828360D01*
X167604372Y-117863476D01*
X167593033Y-117903268D01*
X167580361Y-117937172D01*
X167569324Y-117954624D01*
X167564310Y-117955988D01*
X167536532Y-117954270D01*
X167496776Y-117945860D01*
X167474838Y-117940862D01*
X167416373Y-117932061D01*
X167357498Y-117927747D01*
X167315827Y-117929189D01*
X167270522Y-117942778D01*
X167245904Y-117972605D01*
X167238475Y-118021421D01*
X167238479Y-118024259D01*
X167240346Y-118045791D01*
X167250375Y-118057037D01*
X167275485Y-118061337D01*
X167322590Y-118062028D01*
X167371003Y-118064213D01*
X167461995Y-118079883D01*
X167542176Y-118108462D01*
X167603020Y-118147355D01*
X167616914Y-118160454D01*
X167637674Y-118187765D01*
X167648753Y-118222104D01*
X167653217Y-118262107D01*
X167654590Y-118274408D01*
X167655034Y-118281226D01*
G37*
G36*
X165509982Y-118364032D02*
G01*
X165479844Y-118431915D01*
X165428051Y-118480945D01*
X165355159Y-118510374D01*
X165296605Y-118517005D01*
X165211420Y-118504159D01*
X165132498Y-118466504D01*
X165072110Y-118425518D01*
X165057354Y-118467848D01*
X165049788Y-118486771D01*
X165036090Y-118502463D01*
X165010967Y-118508921D01*
X164965686Y-118510178D01*
X164888774Y-118510178D01*
X164892976Y-118253576D01*
X164893469Y-118225305D01*
X165098919Y-118225305D01*
X165101810Y-118262048D01*
X165119492Y-118301540D01*
X165157779Y-118330007D01*
X165182263Y-118341064D01*
X165233646Y-118349915D01*
X165274842Y-118333086D01*
X165304145Y-118297441D01*
X165307117Y-118262356D01*
X165285993Y-118231356D01*
X165243117Y-118207875D01*
X165180831Y-118195348D01*
X165179165Y-118195210D01*
X165133619Y-118192177D01*
X165109702Y-118194485D01*
X165100455Y-118204679D01*
X165098919Y-118225305D01*
X164893469Y-118225305D01*
X164893849Y-118203559D01*
X164896254Y-118100226D01*
X164899424Y-118020346D01*
X164903826Y-117960047D01*
X164909924Y-117915457D01*
X164918185Y-117882704D01*
X164929075Y-117857915D01*
X164943059Y-117837218D01*
X164970493Y-117809048D01*
X165021812Y-117779877D01*
X165090763Y-117763537D01*
X165182156Y-117758442D01*
X165219203Y-117759669D01*
X165281266Y-117765336D01*
X165345281Y-117774408D01*
X165403549Y-117785550D01*
X165448369Y-117797427D01*
X165472041Y-117808703D01*
X165472251Y-117817166D01*
X165465743Y-117846649D01*
X165453022Y-117888791D01*
X165440921Y-117923403D01*
X165427883Y-117948846D01*
X165412854Y-117956860D01*
X165390110Y-117953316D01*
X165371972Y-117949213D01*
X165325643Y-117940628D01*
X165273326Y-117932509D01*
X165247589Y-117929348D01*
X165178793Y-117927538D01*
X165132750Y-117939813D01*
X165106960Y-117967303D01*
X165098919Y-118011135D01*
X165098919Y-118057896D01*
X165214385Y-118065810D01*
X165320057Y-118081088D01*
X165405958Y-118111859D01*
X165467949Y-118157504D01*
X165505519Y-118217640D01*
X165513130Y-118262356D01*
X165518157Y-118291888D01*
X165509982Y-118364032D01*
G37*
G36*
X164737508Y-118440120D02*
G01*
X164695250Y-118482377D01*
X164688940Y-118488558D01*
X164659161Y-118511543D01*
X164625671Y-118522070D01*
X164575985Y-118524554D01*
X164550816Y-118523839D01*
X164491905Y-118518250D01*
X164443060Y-118508947D01*
X164426836Y-118504319D01*
X164400071Y-118492833D01*
X164392026Y-118474804D01*
X164395917Y-118440360D01*
X164396692Y-118435571D01*
X164402418Y-118392622D01*
X164404850Y-118360314D01*
X164405366Y-118352533D01*
X164415523Y-118339247D01*
X164444610Y-118340900D01*
X164476581Y-118342524D01*
X164509665Y-118334849D01*
X164513740Y-118332212D01*
X164520277Y-118324119D01*
X164525336Y-118309343D01*
X164529103Y-118284707D01*
X164531767Y-118247037D01*
X164533513Y-118193157D01*
X164534529Y-118119890D01*
X164535001Y-118024063D01*
X164535117Y-117902498D01*
X164535117Y-117483769D01*
X164737508Y-117483769D01*
X164737508Y-118440120D01*
G37*
G36*
X163530386Y-118214739D02*
G01*
X163510998Y-118307736D01*
X163477380Y-118389042D01*
X163429839Y-118451750D01*
X163425374Y-118455719D01*
X163385867Y-118482498D01*
X163340216Y-118504402D01*
X163291632Y-118516226D01*
X163214656Y-118521725D01*
X163129674Y-118517403D01*
X163047122Y-118503908D01*
X162977434Y-118481888D01*
X162944864Y-118467193D01*
X162913614Y-118451728D01*
X162901537Y-118443730D01*
X162901674Y-118441867D01*
X162910027Y-118418222D01*
X162927486Y-118383757D01*
X162948671Y-118347708D01*
X162968206Y-118319307D01*
X162980712Y-118307788D01*
X163000810Y-118314398D01*
X163030988Y-118332085D01*
X163060974Y-118345484D01*
X163115661Y-118355418D01*
X163177801Y-118356332D01*
X163235876Y-118347366D01*
X163263085Y-118334795D01*
X163300951Y-118293881D01*
X163325991Y-118231891D01*
X163335782Y-118192136D01*
X163120206Y-118192136D01*
X163084993Y-118192180D01*
X163007643Y-118191951D01*
X162953543Y-118189226D01*
X162918567Y-118181486D01*
X162898591Y-118166213D01*
X162889488Y-118140887D01*
X162887132Y-118102990D01*
X162887398Y-118050003D01*
X162888012Y-118027836D01*
X163075015Y-118027836D01*
X163076080Y-118043220D01*
X163083180Y-118053835D01*
X163102037Y-118059447D01*
X163138369Y-118061648D01*
X163197895Y-118062028D01*
X163209283Y-118062010D01*
X163270184Y-118060335D01*
X163306197Y-118053854D01*
X163320793Y-118039642D01*
X163317445Y-118014773D01*
X163299625Y-117976323D01*
X163297501Y-117972306D01*
X163272175Y-117938769D01*
X163237142Y-117922022D01*
X163183305Y-117917463D01*
X163166394Y-117919096D01*
X163120976Y-117940167D01*
X163087842Y-117979139D01*
X163075015Y-118027836D01*
X162888012Y-118027836D01*
X162888148Y-118022939D01*
X162902633Y-117930804D01*
X162934672Y-117857338D01*
X162983110Y-117805490D01*
X163043924Y-117772712D01*
X163130475Y-117750789D01*
X163222026Y-117749365D01*
X163311525Y-117767628D01*
X163391923Y-117804765D01*
X163456168Y-117859965D01*
X163459491Y-117864011D01*
X163500097Y-117934688D01*
X163525243Y-118021307D01*
X163527159Y-118039642D01*
X163535237Y-118116960D01*
X163530386Y-118214739D01*
G37*
G36*
X166881283Y-112344502D02*
G01*
X167228953Y-112344518D01*
X167550132Y-112344556D01*
X167845886Y-112344622D01*
X168117282Y-112344725D01*
X168365388Y-112344874D01*
X168591270Y-112345078D01*
X168795995Y-112345344D01*
X168980630Y-112345681D01*
X169146241Y-112346097D01*
X169293896Y-112346601D01*
X169424662Y-112347201D01*
X169539605Y-112347905D01*
X169639792Y-112348722D01*
X169726291Y-112349660D01*
X169800167Y-112350727D01*
X169862489Y-112351933D01*
X169914322Y-112353284D01*
X169956734Y-112354790D01*
X169990791Y-112356460D01*
X170017561Y-112358300D01*
X170038110Y-112360321D01*
X170053506Y-112362529D01*
X170064814Y-112364934D01*
X170073102Y-112367543D01*
X170079438Y-112370366D01*
X170084887Y-112373411D01*
X170137346Y-112412964D01*
X170179401Y-112473566D01*
X170198434Y-112550490D01*
X170199585Y-112569925D01*
X170188293Y-112649449D01*
X170152798Y-112717405D01*
X170096212Y-112769382D01*
X170021646Y-112800971D01*
X170018807Y-112801281D01*
X169991412Y-112802199D01*
X169936758Y-112803076D01*
X169856089Y-112803911D01*
X169750652Y-112804699D01*
X169621690Y-112805439D01*
X169470451Y-112806126D01*
X169298178Y-112806760D01*
X169106116Y-112807335D01*
X168895512Y-112807851D01*
X168667610Y-112808304D01*
X168423655Y-112808690D01*
X168164892Y-112809008D01*
X167892567Y-112809254D01*
X167607925Y-112809426D01*
X167312211Y-112809520D01*
X167006670Y-112809534D01*
X166692547Y-112809465D01*
X166371088Y-112809310D01*
X162764201Y-112807105D01*
X162709540Y-112773121D01*
X162692370Y-112761368D01*
X162638284Y-112703729D01*
X162607148Y-112631648D01*
X162601567Y-112550490D01*
X162615260Y-112486878D01*
X162652742Y-112423439D01*
X162715114Y-112373411D01*
X162716557Y-112372567D01*
X162722140Y-112369584D01*
X162728897Y-112366819D01*
X162737895Y-112364265D01*
X162750201Y-112361914D01*
X162766881Y-112359758D01*
X162789003Y-112357787D01*
X162817633Y-112355993D01*
X162853838Y-112354369D01*
X162898686Y-112352905D01*
X162953243Y-112351593D01*
X163018576Y-112350426D01*
X163095751Y-112349394D01*
X163185836Y-112348490D01*
X163289898Y-112347704D01*
X163409003Y-112347029D01*
X163544219Y-112346456D01*
X163696611Y-112345976D01*
X163867248Y-112345583D01*
X164057196Y-112345266D01*
X164267522Y-112345017D01*
X164499292Y-112344829D01*
X164753575Y-112344693D01*
X165031435Y-112344600D01*
X165333941Y-112344543D01*
X165662160Y-112344512D01*
X166017157Y-112344500D01*
X166400001Y-112344498D01*
X166506054Y-112344498D01*
X166881283Y-112344502D01*
G37*
G36*
X166237602Y-118177139D02*
G01*
X166233031Y-118228973D01*
X166211400Y-118329277D01*
X166173291Y-118407336D01*
X166117687Y-118464857D01*
X166043574Y-118503548D01*
X166020805Y-118510423D01*
X165944904Y-118521693D01*
X165859725Y-118521485D01*
X165774563Y-118510768D01*
X165698709Y-118490509D01*
X165641457Y-118461675D01*
X165629578Y-118452462D01*
X165620956Y-118438954D01*
X165624665Y-118418331D01*
X165640604Y-118381028D01*
X165648800Y-118363555D01*
X165666418Y-118330461D01*
X165678224Y-118314369D01*
X165684934Y-118313807D01*
X165712665Y-118320917D01*
X165751610Y-118336434D01*
X165773250Y-118345865D01*
X165823304Y-118361654D01*
X165869524Y-118362760D01*
X165926688Y-118350359D01*
X165965157Y-118334377D01*
X166006547Y-118294371D01*
X166031949Y-118231891D01*
X166041723Y-118192136D01*
X165608509Y-118192136D01*
X165599474Y-118146959D01*
X165590247Y-118065791D01*
X165590552Y-118062028D01*
X165774759Y-118062028D01*
X166034580Y-118062028D01*
X166027741Y-118026255D01*
X166026165Y-118019095D01*
X165999636Y-117966606D01*
X165954178Y-117930742D01*
X165896955Y-117917463D01*
X165895452Y-117917468D01*
X165841066Y-117928043D01*
X165804680Y-117960208D01*
X165783966Y-118015993D01*
X165774759Y-118062028D01*
X165590552Y-118062028D01*
X165597913Y-117971349D01*
X165625382Y-117888495D01*
X165671361Y-117823049D01*
X165728551Y-117781457D01*
X165806463Y-117753605D01*
X165892779Y-117745136D01*
X165980768Y-117755886D01*
X166063702Y-117785690D01*
X166134850Y-117834382D01*
X166148307Y-117847412D01*
X166194763Y-117907972D01*
X166224153Y-117979853D01*
X166237018Y-118062028D01*
X166237945Y-118067946D01*
X166237602Y-118177139D01*
G37*
%TD*%
D10*
%TO.C,T1*%
X241061444Y-102341167D03*
X241061444Y-105341167D03*
%TD*%
D11*
%TO.C,B1*%
X233061447Y-107041164D03*
X233061447Y-100641164D03*
%TD*%
D12*
%TO.C,S36*%
X234358669Y-133463698D03*
X240668009Y-124453026D03*
D13*
X237513339Y-128958362D03*
D14*
X243493999Y-127042192D03*
X237758235Y-135233713D03*
X242346336Y-132342463D03*
X242346336Y-132342463D03*
%TD*%
D13*
%TO.C,S16*%
X175061439Y-71591167D03*
D12*
X169561439Y-71591167D03*
X180561439Y-71591167D03*
D14*
X180061439Y-75391167D03*
X170061439Y-75391167D03*
X175061439Y-77491167D03*
X175061439Y-77491167D03*
%TD*%
D15*
%TO.C,S19*%
X188061453Y-90791169D03*
X193061453Y-88591169D03*
X198061453Y-90791169D03*
D12*
X198561453Y-94541169D03*
D13*
X193061453Y-94541169D03*
D12*
X187561453Y-94541169D03*
D15*
X193061453Y-88591169D03*
D16*
X189786453Y-88591169D03*
X201336453Y-90791169D03*
%TD*%
D17*
%TO.C,D6*%
X155411442Y-62941168D03*
X158711442Y-62941168D03*
%TD*%
D12*
%TO.C,S28*%
X216561440Y-80091175D03*
D13*
X211061440Y-80091175D03*
D12*
X205561440Y-80091175D03*
D14*
X206061440Y-83891175D03*
X216061440Y-83891175D03*
X211061440Y-85991175D03*
X211061440Y-85991175D03*
%TD*%
D15*
%TO.C,S7*%
X157061442Y-87741167D03*
X157061442Y-87741167D03*
X162061442Y-89941167D03*
D12*
X162561442Y-93691167D03*
D15*
X152061442Y-89941167D03*
D13*
X157061442Y-93691167D03*
D12*
X151561442Y-93691167D03*
D16*
X153786442Y-87741167D03*
X165336442Y-89941167D03*
%TD*%
D18*
%TO.C,D16*%
X191134474Y-122284995D03*
X194421916Y-122572609D03*
%TD*%
D12*
%TO.C,S25*%
X216561452Y-97091167D03*
D15*
X211061452Y-91141167D03*
X216061452Y-93341167D03*
D13*
X211061452Y-97091167D03*
D12*
X205561452Y-97091167D03*
D15*
X206061452Y-93341167D03*
X211061452Y-91141167D03*
D16*
X207786452Y-91141167D03*
X219336452Y-93341167D03*
%TD*%
D17*
%TO.C,D1*%
X137411446Y-108841166D03*
X140711446Y-108841166D03*
%TD*%
D13*
%TO.C,S13*%
X175061443Y-88591173D03*
D15*
X180061443Y-84841173D03*
D12*
X169561443Y-88591173D03*
D15*
X175061443Y-82641173D03*
X175061443Y-82641173D03*
X170061443Y-84841173D03*
D12*
X180561443Y-88591173D03*
D16*
X171786443Y-82641173D03*
X183336443Y-84841173D03*
%TD*%
D17*
%TO.C,D8*%
X173411442Y-74841174D03*
X176711442Y-74841174D03*
%TD*%
%TO.C,D3*%
X137411449Y-74841168D03*
X140711449Y-74841168D03*
%TD*%
%TO.C,D5*%
X155411445Y-79941170D03*
X158711445Y-79941170D03*
%TD*%
D13*
%TO.C,S18*%
X175061444Y-54591168D03*
D12*
X180561444Y-54591168D03*
X169561444Y-54591168D03*
D14*
X180061444Y-58391168D03*
X170061444Y-58391168D03*
X175061444Y-60491168D03*
X175061444Y-60491168D03*
%TD*%
D15*
%TO.C,S5*%
X144061438Y-67841166D03*
D12*
X133561438Y-71591166D03*
X144561438Y-71591166D03*
D13*
X139061438Y-71591166D03*
D15*
X134061438Y-67841166D03*
X139061438Y-65641166D03*
X139061438Y-65641166D03*
D16*
X135786438Y-65641166D03*
X147336438Y-67841166D03*
%TD*%
D12*
%TO.C,S33*%
X212030762Y-122107749D03*
D13*
X217199071Y-123988860D03*
D12*
X222367380Y-125869971D03*
D15*
X219234091Y-118397689D03*
X223180110Y-122175113D03*
X213783183Y-118754912D03*
X219234091Y-118397689D03*
D19*
X216156598Y-117277573D03*
X226257603Y-123295229D03*
%TD*%
D20*
%TO.C,D18*%
X239229194Y-132174088D03*
X241121996Y-129470886D03*
%TD*%
D12*
%TO.C,S20*%
X187561453Y-94541169D03*
D13*
X193061453Y-94541169D03*
D12*
X198561453Y-94541169D03*
D14*
X188061453Y-98341169D03*
X198061453Y-98341169D03*
X193061453Y-100441169D03*
X193061453Y-100441169D03*
%TD*%
D12*
%TO.C,S17*%
X180561444Y-54591168D03*
D15*
X175061444Y-48641168D03*
D13*
X175061444Y-54591168D03*
D15*
X170061444Y-50841168D03*
X175061444Y-48641168D03*
X180061444Y-50841168D03*
D12*
X169561444Y-54591168D03*
D16*
X171786444Y-48641168D03*
X183336444Y-50841168D03*
%TD*%
D13*
%TO.C,S21*%
X193061439Y-77541169D03*
D15*
X193061439Y-71591169D03*
D12*
X187561439Y-77541169D03*
D15*
X193061439Y-71591169D03*
X188061439Y-73791169D03*
X198061439Y-73791169D03*
D12*
X198561439Y-77541169D03*
D16*
X189786439Y-71591169D03*
X201336439Y-73791169D03*
%TD*%
D21*
%TO.C,PAD1*%
X226561441Y-105591169D03*
%TD*%
D15*
%TO.C,S3*%
X139061447Y-82641163D03*
X139061447Y-82641163D03*
D12*
X144561447Y-88591163D03*
D15*
X134061447Y-84841163D03*
D12*
X133561447Y-88591163D03*
D13*
X139061447Y-88591163D03*
D15*
X144061447Y-84841163D03*
D16*
X135786447Y-82641163D03*
X147336447Y-84841163D03*
%TD*%
D17*
%TO.C,D12*%
X191411444Y-63791175D03*
X194711444Y-63791175D03*
%TD*%
D12*
%TO.C,S1*%
X133561440Y-105591160D03*
D15*
X139061440Y-99641160D03*
D13*
X139061440Y-105591160D03*
D15*
X139061440Y-99641160D03*
D12*
X144561440Y-105591160D03*
D15*
X144061440Y-101841160D03*
X134061440Y-101841160D03*
D16*
X135786440Y-99641160D03*
X147336440Y-101841160D03*
%TD*%
D15*
%TO.C,S15*%
X175061439Y-65641167D03*
X180061439Y-67841167D03*
X170061439Y-67841167D03*
D12*
X169561439Y-71591167D03*
X180561439Y-71591167D03*
D15*
X175061439Y-65641167D03*
D13*
X175061439Y-71591167D03*
D16*
X171786439Y-65641167D03*
X183336439Y-67841167D03*
%TD*%
D12*
%TO.C,S26*%
X216561452Y-97091167D03*
D13*
X211061452Y-97091167D03*
D12*
X205561452Y-97091167D03*
D14*
X216061452Y-100891167D03*
X206061452Y-100891167D03*
X211061452Y-102991167D03*
X211061452Y-102991167D03*
%TD*%
D22*
%TO.C,MCU1*%
X238681438Y-67121172D03*
D23*
X238681438Y-69661172D03*
X238681438Y-72201172D03*
X238681438Y-74741172D03*
X238681438Y-77281172D03*
X238681438Y-79821172D03*
X238681438Y-82361172D03*
X238681438Y-84901172D03*
X238681438Y-87441172D03*
X238681438Y-89981172D03*
X238681438Y-92521172D03*
X238681438Y-95061172D03*
X223441438Y-67121172D03*
X223441438Y-69661172D03*
X223441438Y-72201172D03*
X223441438Y-74741172D03*
X223441438Y-77281172D03*
X223441438Y-79821172D03*
X223441438Y-82361172D03*
X223441438Y-84901172D03*
X223441438Y-87441172D03*
X223441438Y-89981172D03*
X223441438Y-92521172D03*
X223441438Y-95061172D03*
%TD*%
D15*
%TO.C,S35*%
X231573637Y-130903211D03*
D13*
X237513339Y-128958362D03*
D15*
X232639384Y-125545582D03*
X232639384Y-125545582D03*
D12*
X234358669Y-133463698D03*
D15*
X237309401Y-122711690D03*
D12*
X240668009Y-124453026D03*
D24*
X230760922Y-128228305D03*
X239187864Y-120028967D03*
%TD*%
D12*
%TO.C,S24*%
X187561438Y-60541167D03*
D13*
X193061438Y-60541167D03*
D12*
X198561438Y-60541167D03*
D14*
X198061438Y-64341167D03*
X188061438Y-64341167D03*
X193061438Y-66441167D03*
X193061438Y-66441167D03*
%TD*%
D12*
%TO.C,S2*%
X144561440Y-105591160D03*
X133561440Y-105591160D03*
D13*
X139061440Y-105591160D03*
D14*
X144061440Y-109391160D03*
X134061440Y-109391160D03*
X139061440Y-111491160D03*
X139061440Y-111491160D03*
%TD*%
D13*
%TO.C,S27*%
X211061440Y-80091175D03*
D12*
X205561440Y-80091175D03*
D15*
X216061440Y-76341175D03*
X206061440Y-76341175D03*
X211061440Y-74141175D03*
D12*
X216561440Y-80091175D03*
D15*
X211061440Y-74141175D03*
D16*
X207786440Y-74141175D03*
X219336440Y-76341175D03*
%TD*%
D15*
%TO.C,S31*%
X188407305Y-115019666D03*
D13*
X193061444Y-119191175D03*
D12*
X198540515Y-119670532D03*
D15*
X193580021Y-113263817D03*
X198369252Y-115891224D03*
D12*
X187582373Y-118711818D03*
D15*
X193580021Y-113263817D03*
D25*
X190317483Y-112978381D03*
X201631789Y-116176659D03*
%TD*%
D13*
%TO.C,S4*%
X139061447Y-88591163D03*
D12*
X133561447Y-88591163D03*
X144561447Y-88591163D03*
D14*
X134061447Y-92391163D03*
X144061447Y-92391163D03*
X139061447Y-94491163D03*
X139061447Y-94491163D03*
%TD*%
D12*
%TO.C,S22*%
X187561439Y-77541169D03*
X198561439Y-77541169D03*
D13*
X193061439Y-77541169D03*
D14*
X188061439Y-81341169D03*
X198061439Y-81341169D03*
X193061439Y-83441169D03*
X193061439Y-83441169D03*
%TD*%
D13*
%TO.C,S14*%
X175061443Y-88591173D03*
D12*
X169561443Y-88591173D03*
X180561443Y-88591173D03*
D14*
X170061443Y-92391173D03*
X180061443Y-92391173D03*
X175061443Y-94491173D03*
X175061443Y-94491173D03*
%TD*%
D17*
%TO.C,D15*%
X209411447Y-66341168D03*
X212711447Y-66341168D03*
%TD*%
%TO.C,D13*%
X209411444Y-100341176D03*
X212711444Y-100341176D03*
%TD*%
D26*
%TO.C,D17*%
X214537016Y-126478525D03*
X217638002Y-127607191D03*
%TD*%
D13*
%TO.C,S8*%
X157061442Y-93691167D03*
D12*
X151561442Y-93691167D03*
X162561442Y-93691167D03*
D14*
X162061442Y-97491167D03*
X152061442Y-97491167D03*
X157061442Y-99591167D03*
X157061442Y-99591167D03*
%TD*%
D12*
%TO.C,S32*%
X198540515Y-119670532D03*
D13*
X193061444Y-119191175D03*
D12*
X187582373Y-118711818D03*
D14*
X197711226Y-123412494D03*
X187749279Y-122540936D03*
X192547225Y-125068724D03*
X192547225Y-125068724D03*
%TD*%
D17*
%TO.C,D11*%
X191411444Y-80791162D03*
X194711444Y-80791162D03*
%TD*%
D15*
%TO.C,S11*%
X152061439Y-55941165D03*
X157061439Y-53741165D03*
D12*
X151561439Y-59691165D03*
D15*
X162061439Y-55941165D03*
D12*
X162561439Y-59691165D03*
D15*
X157061439Y-53741165D03*
D13*
X157061439Y-59691165D03*
D16*
X153786439Y-53741165D03*
X165336439Y-55941165D03*
%TD*%
D10*
%TO.C,T2*%
X241061444Y-105341167D03*
D27*
X239961444Y-100141167D03*
X242161444Y-100141167D03*
D10*
X241061444Y-102341167D03*
D27*
X239961444Y-107541167D03*
X242161444Y-107541167D03*
D28*
X238986444Y-101591167D03*
X238986444Y-104591167D03*
X238986444Y-106091167D03*
%TD*%
D15*
%TO.C,S23*%
X188061438Y-56791167D03*
X198061438Y-56791167D03*
D13*
X193061438Y-60541167D03*
D12*
X198561438Y-60541167D03*
X187561438Y-60541167D03*
D15*
X193061438Y-54591167D03*
X193061438Y-54591167D03*
D16*
X189786438Y-54591167D03*
X201336438Y-56791167D03*
%TD*%
D21*
%TO.C,PAD2*%
X223561448Y-105591175D03*
%TD*%
D17*
%TO.C,D14*%
X209411440Y-83341165D03*
X212711440Y-83341165D03*
%TD*%
%TO.C,D7*%
X173411437Y-91841170D03*
X176711437Y-91841170D03*
%TD*%
%TO.C,D10*%
X191411448Y-97791167D03*
X194711448Y-97791167D03*
%TD*%
D12*
%TO.C,S30*%
X216561446Y-63091168D03*
D13*
X211061446Y-63091168D03*
D12*
X205561446Y-63091168D03*
D14*
X206061446Y-66891168D03*
X216061446Y-66891168D03*
X211061446Y-68991168D03*
X211061446Y-68991168D03*
%TD*%
D12*
%TO.C,S9*%
X162561445Y-76691170D03*
X151561445Y-76691170D03*
D15*
X162061445Y-72941170D03*
D13*
X157061445Y-76691170D03*
D15*
X157061445Y-70741170D03*
X157061445Y-70741170D03*
X152061445Y-72941170D03*
D16*
X153786445Y-70741170D03*
X165336445Y-72941170D03*
%TD*%
D12*
%TO.C,S34*%
X222367380Y-125869971D03*
D13*
X217199071Y-123988860D03*
D12*
X212030762Y-122107749D03*
D14*
X211200931Y-125849591D03*
X220597858Y-129269793D03*
X215181152Y-129533046D03*
X215181152Y-129533046D03*
%TD*%
D13*
%TO.C,S12*%
X157061439Y-59691165D03*
D12*
X162561439Y-59691165D03*
X151561439Y-59691165D03*
D14*
X152061439Y-63491165D03*
X162061439Y-63491165D03*
X157061439Y-65591165D03*
X157061439Y-65591165D03*
%TD*%
D17*
%TO.C,D4*%
X155411444Y-96941166D03*
X158711444Y-96941166D03*
%TD*%
%TO.C,D9*%
X173411442Y-57841165D03*
X176711442Y-57841165D03*
%TD*%
%TO.C,D2*%
X137411440Y-91841171D03*
X140711440Y-91841171D03*
%TD*%
D12*
%TO.C,S10*%
X151561445Y-76691170D03*
D13*
X157061445Y-76691170D03*
D12*
X162561445Y-76691170D03*
D14*
X152061445Y-80491170D03*
X162061445Y-80491170D03*
X157061445Y-82591170D03*
X157061445Y-82591170D03*
%TD*%
D12*
%TO.C,S29*%
X205561446Y-63091168D03*
D15*
X211061446Y-57141168D03*
X211061446Y-57141168D03*
X206061446Y-59341168D03*
D13*
X211061446Y-63091168D03*
D15*
X216061446Y-59341168D03*
D12*
X216561446Y-63091168D03*
D16*
X207786446Y-57141168D03*
X219336446Y-59341168D03*
%TD*%
D12*
%TO.C,S6*%
X144561438Y-71591166D03*
D13*
X139061438Y-71591166D03*
D12*
X133561438Y-71591166D03*
D14*
X134061438Y-75391166D03*
X144061438Y-75391166D03*
X139061438Y-77491166D03*
X139061438Y-77491166D03*
%TD*%
D22*
%TO.C,MCU2*%
X225941442Y-68371168D03*
D23*
X225941442Y-70911168D03*
X225941442Y-73451168D03*
X225941442Y-75991168D03*
X225941442Y-78531168D03*
X225941442Y-81071168D03*
X225941442Y-83611168D03*
X225941442Y-86151168D03*
X225941442Y-88691168D03*
X225941442Y-91231168D03*
X225941442Y-93771168D03*
X225941442Y-96311168D03*
X241181442Y-68371168D03*
X241181442Y-70911168D03*
X241181442Y-73451168D03*
X241181442Y-75991168D03*
X241181442Y-78531168D03*
X241181442Y-81071168D03*
X241181442Y-83611168D03*
X241181442Y-86151168D03*
X241181442Y-88691168D03*
X241181442Y-91231168D03*
X241181442Y-93771168D03*
X241181442Y-96311168D03*
%TD*%
M02*
