%TF.GenerationSoftware,KiCad,Pcbnew,(6.0.7-1)-1*%
%TF.CreationDate,2022-09-04T19:21:53+10:00*%
%TF.ProjectId,Dusk 36,4475736b-2033-4362-9e6b-696361645f70,v1.0.0*%
%TF.SameCoordinates,Original*%
%TF.FileFunction,Legend,Bot*%
%TF.FilePolarity,Positive*%
%FSLAX46Y46*%
G04 Gerber Fmt 4.6, Leading zero omitted, Abs format (unit mm)*
G04 Created by KiCad (PCBNEW (6.0.7-1)-1) date 2022-09-04 19:21:53*
%MOMM*%
%LPD*%
G01*
G04 APERTURE LIST*
%ADD10C,0.150000*%
%ADD11C,0.100000*%
G04 APERTURE END LIST*
D10*
%TO.C,PAD1*%
X226999536Y-103284026D02*
X226885250Y-103322121D01*
X226847155Y-103360216D01*
X226809060Y-103436407D01*
X226809060Y-103550692D01*
X226847155Y-103626883D01*
X226885250Y-103664978D01*
X226961441Y-103703073D01*
X227266202Y-103703073D01*
X227266202Y-102903073D01*
X226999536Y-102903073D01*
X226923345Y-102941169D01*
X226885250Y-102979264D01*
X226847155Y-103055454D01*
X226847155Y-103131645D01*
X226885250Y-103207835D01*
X226923345Y-103245930D01*
X226999536Y-103284026D01*
X227266202Y-103284026D01*
X226466202Y-103398311D02*
X225856679Y-103398311D01*
X226161441Y-103703073D02*
X226161441Y-103093549D01*
%TO.C,PAD2*%
X223999543Y-103284032D02*
X223885257Y-103322127D01*
X223847162Y-103360222D01*
X223809067Y-103436413D01*
X223809067Y-103550698D01*
X223847162Y-103626889D01*
X223885257Y-103664984D01*
X223961448Y-103703079D01*
X224266209Y-103703079D01*
X224266209Y-102903079D01*
X223999543Y-102903079D01*
X223923352Y-102941175D01*
X223885257Y-102979270D01*
X223847162Y-103055460D01*
X223847162Y-103131651D01*
X223885257Y-103207841D01*
X223923352Y-103245936D01*
X223999543Y-103284032D01*
X224266209Y-103284032D01*
X223466209Y-103398317D02*
X222856686Y-103398317D01*
%TO.C,MCU2*%
X239332870Y-94133072D02*
X239332870Y-93333072D01*
X239028108Y-93333072D01*
X238951918Y-93371168D01*
X238913822Y-93409263D01*
X238875727Y-93485453D01*
X238875727Y-93599739D01*
X238913822Y-93675929D01*
X238951918Y-93714025D01*
X239028108Y-93752120D01*
X239332870Y-93752120D01*
X238380489Y-93333072D02*
X238304299Y-93333072D01*
X238228108Y-93371168D01*
X238190013Y-93409263D01*
X238151918Y-93485453D01*
X238113822Y-93637834D01*
X238113822Y-93828310D01*
X238151918Y-93980691D01*
X238190013Y-94056882D01*
X238228108Y-94094977D01*
X238304299Y-94133072D01*
X238380489Y-94133072D01*
X238456680Y-94094977D01*
X238494775Y-94056882D01*
X238532870Y-93980691D01*
X238570965Y-93828310D01*
X238570965Y-93637834D01*
X238532870Y-93485453D01*
X238494775Y-93409263D01*
X238456680Y-93371168D01*
X238380489Y-93333072D01*
X237656680Y-93675929D02*
X237732870Y-93637834D01*
X237770965Y-93599739D01*
X237809061Y-93523548D01*
X237809061Y-93485453D01*
X237770965Y-93409263D01*
X237732870Y-93371168D01*
X237656680Y-93333072D01*
X237504299Y-93333072D01*
X237428108Y-93371168D01*
X237390013Y-93409263D01*
X237351918Y-93485453D01*
X237351918Y-93523548D01*
X237390013Y-93599739D01*
X237428108Y-93637834D01*
X237504299Y-93675929D01*
X237656680Y-93675929D01*
X237732870Y-93714025D01*
X237770965Y-93752120D01*
X237809061Y-93828310D01*
X237809061Y-93980691D01*
X237770965Y-94056882D01*
X237732870Y-94094977D01*
X237656680Y-94133072D01*
X237504299Y-94133072D01*
X237428108Y-94094977D01*
X237390013Y-94056882D01*
X237351918Y-93980691D01*
X237351918Y-93828310D01*
X237390013Y-93752120D01*
X237428108Y-93714025D01*
X237504299Y-93675929D01*
X229732870Y-81433072D02*
X229732870Y-80633072D01*
X229428108Y-80633072D01*
X229351918Y-80671168D01*
X229313822Y-80709263D01*
X229275727Y-80785453D01*
X229275727Y-80899739D01*
X229313822Y-80975929D01*
X229351918Y-81014025D01*
X229428108Y-81052120D01*
X229732870Y-81052120D01*
X228970965Y-80709263D02*
X228932870Y-80671168D01*
X228856680Y-80633072D01*
X228666203Y-80633072D01*
X228590013Y-80671168D01*
X228551918Y-80709263D01*
X228513822Y-80785453D01*
X228513822Y-80861644D01*
X228551918Y-80975929D01*
X229009061Y-81433072D01*
X228513822Y-81433072D01*
X228018584Y-80633072D02*
X227942394Y-80633072D01*
X227866203Y-80671168D01*
X227828108Y-80709263D01*
X227790013Y-80785453D01*
X227751918Y-80937834D01*
X227751918Y-81128310D01*
X227790013Y-81280691D01*
X227828108Y-81356882D01*
X227866203Y-81394977D01*
X227942394Y-81433072D01*
X228018584Y-81433072D01*
X228094775Y-81394977D01*
X228132870Y-81356882D01*
X228170965Y-81280691D01*
X228209061Y-81128310D01*
X228209061Y-80937834D01*
X228170965Y-80785453D01*
X228132870Y-80709263D01*
X228094775Y-80671168D01*
X228018584Y-80633072D01*
X229732870Y-86513072D02*
X229732870Y-85713072D01*
X229428108Y-85713072D01*
X229351918Y-85751168D01*
X229313822Y-85789263D01*
X229275727Y-85865453D01*
X229275727Y-85979739D01*
X229313822Y-86055929D01*
X229351918Y-86094025D01*
X229428108Y-86132120D01*
X229732870Y-86132120D01*
X228513822Y-86513072D02*
X228970965Y-86513072D01*
X228742394Y-86513072D02*
X228742394Y-85713072D01*
X228818584Y-85827358D01*
X228894775Y-85903548D01*
X228970965Y-85941644D01*
X228056680Y-86055929D02*
X228132870Y-86017834D01*
X228170965Y-85979739D01*
X228209061Y-85903548D01*
X228209061Y-85865453D01*
X228170965Y-85789263D01*
X228132870Y-85751168D01*
X228056680Y-85713072D01*
X227904299Y-85713072D01*
X227828108Y-85751168D01*
X227790013Y-85789263D01*
X227751918Y-85865453D01*
X227751918Y-85903548D01*
X227790013Y-85979739D01*
X227828108Y-86017834D01*
X227904299Y-86055929D01*
X228056680Y-86055929D01*
X228132870Y-86094025D01*
X228170965Y-86132120D01*
X228209061Y-86208310D01*
X228209061Y-86360691D01*
X228170965Y-86436882D01*
X228132870Y-86474977D01*
X228056680Y-86513072D01*
X227904299Y-86513072D01*
X227828108Y-86474977D01*
X227790013Y-86436882D01*
X227751918Y-86360691D01*
X227751918Y-86208310D01*
X227790013Y-86132120D01*
X227828108Y-86094025D01*
X227904299Y-86055929D01*
X229732870Y-94133072D02*
X229732870Y-93333072D01*
X229428108Y-93333072D01*
X229351918Y-93371168D01*
X229313822Y-93409263D01*
X229275727Y-93485453D01*
X229275727Y-93599739D01*
X229313822Y-93675929D01*
X229351918Y-93714025D01*
X229428108Y-93752120D01*
X229732870Y-93752120D01*
X228513822Y-94133072D02*
X228970965Y-94133072D01*
X228742394Y-94133072D02*
X228742394Y-93333072D01*
X228818584Y-93447358D01*
X228894775Y-93523548D01*
X228970965Y-93561644D01*
X227828108Y-93333072D02*
X227980489Y-93333072D01*
X228056680Y-93371168D01*
X228094775Y-93409263D01*
X228170965Y-93523548D01*
X228209061Y-93675929D01*
X228209061Y-93980691D01*
X228170965Y-94056882D01*
X228132870Y-94094977D01*
X228056680Y-94133072D01*
X227904299Y-94133072D01*
X227828108Y-94094977D01*
X227790013Y-94056882D01*
X227751918Y-93980691D01*
X227751918Y-93790215D01*
X227790013Y-93714025D01*
X227828108Y-93675929D01*
X227904299Y-93637834D01*
X228056680Y-93637834D01*
X228132870Y-93675929D01*
X228170965Y-93714025D01*
X228209061Y-93790215D01*
X239332870Y-91593072D02*
X239332870Y-90793072D01*
X239028108Y-90793072D01*
X238951918Y-90831168D01*
X238913822Y-90869263D01*
X238875727Y-90945453D01*
X238875727Y-91059739D01*
X238913822Y-91135929D01*
X238951918Y-91174025D01*
X239028108Y-91212120D01*
X239332870Y-91212120D01*
X238380489Y-90793072D02*
X238304299Y-90793072D01*
X238228108Y-90831168D01*
X238190013Y-90869263D01*
X238151918Y-90945453D01*
X238113822Y-91097834D01*
X238113822Y-91288310D01*
X238151918Y-91440691D01*
X238190013Y-91516882D01*
X238228108Y-91554977D01*
X238304299Y-91593072D01*
X238380489Y-91593072D01*
X238456680Y-91554977D01*
X238494775Y-91516882D01*
X238532870Y-91440691D01*
X238570965Y-91288310D01*
X238570965Y-91097834D01*
X238532870Y-90945453D01*
X238494775Y-90869263D01*
X238456680Y-90831168D01*
X238380489Y-90793072D01*
X237847156Y-90793072D02*
X237313822Y-90793072D01*
X237656680Y-91593072D01*
X238970965Y-75591168D02*
X239047156Y-75553072D01*
X239161442Y-75553072D01*
X239275727Y-75591168D01*
X239351918Y-75667358D01*
X239390013Y-75743548D01*
X239428108Y-75895929D01*
X239428108Y-76010215D01*
X239390013Y-76162596D01*
X239351918Y-76238787D01*
X239275727Y-76314977D01*
X239161442Y-76353072D01*
X239085251Y-76353072D01*
X238970965Y-76314977D01*
X238932870Y-76276882D01*
X238932870Y-76010215D01*
X239085251Y-76010215D01*
X238590013Y-76353072D02*
X238590013Y-75553072D01*
X238132870Y-76353072D01*
X238132870Y-75553072D01*
X237751918Y-76353072D02*
X237751918Y-75553072D01*
X237561442Y-75553072D01*
X237447156Y-75591168D01*
X237370965Y-75667358D01*
X237332870Y-75743548D01*
X237294775Y-75895929D01*
X237294775Y-76010215D01*
X237332870Y-76162596D01*
X237370965Y-76238787D01*
X237447156Y-76314977D01*
X237561442Y-76353072D01*
X237751918Y-76353072D01*
X229732870Y-96673072D02*
X229732870Y-95873072D01*
X229428108Y-95873072D01*
X229351918Y-95911168D01*
X229313822Y-95949263D01*
X229275727Y-96025453D01*
X229275727Y-96139739D01*
X229313822Y-96215929D01*
X229351918Y-96254025D01*
X229428108Y-96292120D01*
X229732870Y-96292120D01*
X228513822Y-96673072D02*
X228970965Y-96673072D01*
X228742394Y-96673072D02*
X228742394Y-95873072D01*
X228818584Y-95987358D01*
X228894775Y-96063548D01*
X228970965Y-96101644D01*
X228018584Y-95873072D02*
X227942394Y-95873072D01*
X227866203Y-95911168D01*
X227828108Y-95949263D01*
X227790013Y-96025453D01*
X227751918Y-96177834D01*
X227751918Y-96368310D01*
X227790013Y-96520691D01*
X227828108Y-96596882D01*
X227866203Y-96634977D01*
X227942394Y-96673072D01*
X228018584Y-96673072D01*
X228094775Y-96634977D01*
X228132870Y-96596882D01*
X228170965Y-96520691D01*
X228209061Y-96368310D01*
X228209061Y-96177834D01*
X228170965Y-96025453D01*
X228132870Y-95949263D01*
X228094775Y-95911168D01*
X228018584Y-95873072D01*
X239332870Y-83973072D02*
X239332870Y-83173072D01*
X239028108Y-83173072D01*
X238951918Y-83211168D01*
X238913822Y-83249263D01*
X238875727Y-83325453D01*
X238875727Y-83439739D01*
X238913822Y-83515929D01*
X238951918Y-83554025D01*
X239028108Y-83592120D01*
X239332870Y-83592120D01*
X238380489Y-83173072D02*
X238304299Y-83173072D01*
X238228108Y-83211168D01*
X238190013Y-83249263D01*
X238151918Y-83325453D01*
X238113822Y-83477834D01*
X238113822Y-83668310D01*
X238151918Y-83820691D01*
X238190013Y-83896882D01*
X238228108Y-83934977D01*
X238304299Y-83973072D01*
X238380489Y-83973072D01*
X238456680Y-83934977D01*
X238494775Y-83896882D01*
X238532870Y-83820691D01*
X238570965Y-83668310D01*
X238570965Y-83477834D01*
X238532870Y-83325453D01*
X238494775Y-83249263D01*
X238456680Y-83211168D01*
X238380489Y-83173072D01*
X237428108Y-83439739D02*
X237428108Y-83973072D01*
X237618584Y-83134977D02*
X237809061Y-83706406D01*
X237313822Y-83706406D01*
X239332870Y-68733072D02*
X239332870Y-67933072D01*
X239028108Y-67933072D01*
X238951918Y-67971168D01*
X238913822Y-68009263D01*
X238875727Y-68085453D01*
X238875727Y-68199739D01*
X238913822Y-68275929D01*
X238951918Y-68314025D01*
X239028108Y-68352120D01*
X239332870Y-68352120D01*
X238380489Y-67933072D02*
X238304299Y-67933072D01*
X238228108Y-67971168D01*
X238190013Y-68009263D01*
X238151918Y-68085453D01*
X238113822Y-68237834D01*
X238113822Y-68428310D01*
X238151918Y-68580691D01*
X238190013Y-68656882D01*
X238228108Y-68694977D01*
X238304299Y-68733072D01*
X238380489Y-68733072D01*
X238456680Y-68694977D01*
X238494775Y-68656882D01*
X238532870Y-68580691D01*
X238570965Y-68428310D01*
X238570965Y-68237834D01*
X238532870Y-68085453D01*
X238494775Y-68009263D01*
X238456680Y-67971168D01*
X238380489Y-67933072D01*
X237351918Y-68733072D02*
X237809061Y-68733072D01*
X237580489Y-68733072D02*
X237580489Y-67933072D01*
X237656680Y-68047358D01*
X237732870Y-68123548D01*
X237809061Y-68161644D01*
X229732870Y-91593072D02*
X229732870Y-90793072D01*
X229428108Y-90793072D01*
X229351918Y-90831168D01*
X229313822Y-90869263D01*
X229275727Y-90945453D01*
X229275727Y-91059739D01*
X229313822Y-91135929D01*
X229351918Y-91174025D01*
X229428108Y-91212120D01*
X229732870Y-91212120D01*
X228513822Y-91593072D02*
X228970965Y-91593072D01*
X228742394Y-91593072D02*
X228742394Y-90793072D01*
X228818584Y-90907358D01*
X228894775Y-90983548D01*
X228970965Y-91021644D01*
X227828108Y-91059739D02*
X227828108Y-91593072D01*
X228018584Y-90754977D02*
X228209061Y-91326406D01*
X227713822Y-91326406D01*
X229732870Y-83973072D02*
X229732870Y-83173072D01*
X229428108Y-83173072D01*
X229351918Y-83211168D01*
X229313822Y-83249263D01*
X229275727Y-83325453D01*
X229275727Y-83439739D01*
X229313822Y-83515929D01*
X229351918Y-83554025D01*
X229428108Y-83592120D01*
X229732870Y-83592120D01*
X228513822Y-83973072D02*
X228970965Y-83973072D01*
X228742394Y-83973072D02*
X228742394Y-83173072D01*
X228818584Y-83287358D01*
X228894775Y-83363548D01*
X228970965Y-83401644D01*
X228132870Y-83973072D02*
X227980489Y-83973072D01*
X227904299Y-83934977D01*
X227866203Y-83896882D01*
X227790013Y-83782596D01*
X227751918Y-83630215D01*
X227751918Y-83325453D01*
X227790013Y-83249263D01*
X227828108Y-83211168D01*
X227904299Y-83173072D01*
X228056680Y-83173072D01*
X228132870Y-83211168D01*
X228170965Y-83249263D01*
X228209061Y-83325453D01*
X228209061Y-83515929D01*
X228170965Y-83592120D01*
X228132870Y-83630215D01*
X228056680Y-83668310D01*
X227904299Y-83668310D01*
X227828108Y-83630215D01*
X227790013Y-83592120D01*
X227751918Y-83515929D01*
X238970965Y-73051168D02*
X239047156Y-73013072D01*
X239161442Y-73013072D01*
X239275727Y-73051168D01*
X239351918Y-73127358D01*
X239390013Y-73203548D01*
X239428108Y-73355929D01*
X239428108Y-73470215D01*
X239390013Y-73622596D01*
X239351918Y-73698787D01*
X239275727Y-73774977D01*
X239161442Y-73813072D01*
X239085251Y-73813072D01*
X238970965Y-73774977D01*
X238932870Y-73736882D01*
X238932870Y-73470215D01*
X239085251Y-73470215D01*
X238590013Y-73813072D02*
X238590013Y-73013072D01*
X238132870Y-73813072D01*
X238132870Y-73013072D01*
X237751918Y-73813072D02*
X237751918Y-73013072D01*
X237561442Y-73013072D01*
X237447156Y-73051168D01*
X237370965Y-73127358D01*
X237332870Y-73203548D01*
X237294775Y-73355929D01*
X237294775Y-73470215D01*
X237332870Y-73622596D01*
X237370965Y-73698787D01*
X237447156Y-73774977D01*
X237561442Y-73813072D01*
X237751918Y-73813072D01*
X229313822Y-68733072D02*
X229580489Y-68352120D01*
X229770965Y-68733072D02*
X229770965Y-67933072D01*
X229466203Y-67933072D01*
X229390013Y-67971168D01*
X229351918Y-68009263D01*
X229313822Y-68085453D01*
X229313822Y-68199739D01*
X229351918Y-68275929D01*
X229390013Y-68314025D01*
X229466203Y-68352120D01*
X229770965Y-68352120D01*
X229009061Y-68504501D02*
X228628108Y-68504501D01*
X229085251Y-68733072D02*
X228818584Y-67933072D01*
X228551918Y-68733072D01*
X228361442Y-67933072D02*
X228170965Y-68733072D01*
X228018584Y-68161644D01*
X227866203Y-68733072D01*
X227675727Y-67933072D01*
X239332870Y-96673072D02*
X239332870Y-95873072D01*
X239028108Y-95873072D01*
X238951918Y-95911168D01*
X238913822Y-95949263D01*
X238875727Y-96025453D01*
X238875727Y-96139739D01*
X238913822Y-96215929D01*
X238951918Y-96254025D01*
X239028108Y-96292120D01*
X239332870Y-96292120D01*
X238380489Y-95873072D02*
X238304299Y-95873072D01*
X238228108Y-95911168D01*
X238190013Y-95949263D01*
X238151918Y-96025453D01*
X238113822Y-96177834D01*
X238113822Y-96368310D01*
X238151918Y-96520691D01*
X238190013Y-96596882D01*
X238228108Y-96634977D01*
X238304299Y-96673072D01*
X238380489Y-96673072D01*
X238456680Y-96634977D01*
X238494775Y-96596882D01*
X238532870Y-96520691D01*
X238570965Y-96368310D01*
X238570965Y-96177834D01*
X238532870Y-96025453D01*
X238494775Y-95949263D01*
X238456680Y-95911168D01*
X238380489Y-95873072D01*
X237732870Y-96673072D02*
X237580489Y-96673072D01*
X237504299Y-96634977D01*
X237466203Y-96596882D01*
X237390013Y-96482596D01*
X237351918Y-96330215D01*
X237351918Y-96025453D01*
X237390013Y-95949263D01*
X237428108Y-95911168D01*
X237504299Y-95873072D01*
X237656680Y-95873072D01*
X237732870Y-95911168D01*
X237770965Y-95949263D01*
X237809061Y-96025453D01*
X237809061Y-96215929D01*
X237770965Y-96292120D01*
X237732870Y-96330215D01*
X237656680Y-96368310D01*
X237504299Y-96368310D01*
X237428108Y-96330215D01*
X237390013Y-96292120D01*
X237351918Y-96215929D01*
X239332870Y-78893072D02*
X239332870Y-78093072D01*
X239028108Y-78093072D01*
X238951918Y-78131168D01*
X238913822Y-78169263D01*
X238875727Y-78245453D01*
X238875727Y-78359739D01*
X238913822Y-78435929D01*
X238951918Y-78474025D01*
X239028108Y-78512120D01*
X239332870Y-78512120D01*
X238380489Y-78093072D02*
X238304299Y-78093072D01*
X238228108Y-78131168D01*
X238190013Y-78169263D01*
X238151918Y-78245453D01*
X238113822Y-78397834D01*
X238113822Y-78588310D01*
X238151918Y-78740691D01*
X238190013Y-78816882D01*
X238228108Y-78854977D01*
X238304299Y-78893072D01*
X238380489Y-78893072D01*
X238456680Y-78854977D01*
X238494775Y-78816882D01*
X238532870Y-78740691D01*
X238570965Y-78588310D01*
X238570965Y-78397834D01*
X238532870Y-78245453D01*
X238494775Y-78169263D01*
X238456680Y-78131168D01*
X238380489Y-78093072D01*
X237809061Y-78169263D02*
X237770965Y-78131168D01*
X237694775Y-78093072D01*
X237504299Y-78093072D01*
X237428108Y-78131168D01*
X237390013Y-78169263D01*
X237351918Y-78245453D01*
X237351918Y-78321644D01*
X237390013Y-78435929D01*
X237847156Y-78893072D01*
X237351918Y-78893072D01*
X229828108Y-75553072D02*
X229561442Y-76353072D01*
X229294775Y-75553072D01*
X228570965Y-76276882D02*
X228609061Y-76314977D01*
X228723346Y-76353072D01*
X228799537Y-76353072D01*
X228913822Y-76314977D01*
X228990013Y-76238787D01*
X229028108Y-76162596D01*
X229066203Y-76010215D01*
X229066203Y-75895929D01*
X229028108Y-75743548D01*
X228990013Y-75667358D01*
X228913822Y-75591168D01*
X228799537Y-75553072D01*
X228723346Y-75553072D01*
X228609061Y-75591168D01*
X228570965Y-75629263D01*
X227770965Y-76276882D02*
X227809061Y-76314977D01*
X227923346Y-76353072D01*
X227999537Y-76353072D01*
X228113822Y-76314977D01*
X228190013Y-76238787D01*
X228228108Y-76162596D01*
X228266203Y-76010215D01*
X228266203Y-75895929D01*
X228228108Y-75743548D01*
X228190013Y-75667358D01*
X228113822Y-75591168D01*
X227999537Y-75553072D01*
X227923346Y-75553072D01*
X227809061Y-75591168D01*
X227770965Y-75629263D01*
X229199537Y-73813072D02*
X229466203Y-73432120D01*
X229656680Y-73813072D02*
X229656680Y-73013072D01*
X229351918Y-73013072D01*
X229275727Y-73051168D01*
X229237632Y-73089263D01*
X229199537Y-73165453D01*
X229199537Y-73279739D01*
X229237632Y-73355929D01*
X229275727Y-73394025D01*
X229351918Y-73432120D01*
X229656680Y-73432120D01*
X228894775Y-73774977D02*
X228780489Y-73813072D01*
X228590013Y-73813072D01*
X228513822Y-73774977D01*
X228475727Y-73736882D01*
X228437632Y-73660691D01*
X228437632Y-73584501D01*
X228475727Y-73508310D01*
X228513822Y-73470215D01*
X228590013Y-73432120D01*
X228742394Y-73394025D01*
X228818584Y-73355929D01*
X228856680Y-73317834D01*
X228894775Y-73241644D01*
X228894775Y-73165453D01*
X228856680Y-73089263D01*
X228818584Y-73051168D01*
X228742394Y-73013072D01*
X228551918Y-73013072D01*
X228437632Y-73051168D01*
X228209061Y-73013072D02*
X227751918Y-73013072D01*
X227980489Y-73813072D02*
X227980489Y-73013072D01*
X229370965Y-70511168D02*
X229447156Y-70473072D01*
X229561442Y-70473072D01*
X229675727Y-70511168D01*
X229751918Y-70587358D01*
X229790013Y-70663548D01*
X229828108Y-70815929D01*
X229828108Y-70930215D01*
X229790013Y-71082596D01*
X229751918Y-71158787D01*
X229675727Y-71234977D01*
X229561442Y-71273072D01*
X229485251Y-71273072D01*
X229370965Y-71234977D01*
X229332870Y-71196882D01*
X229332870Y-70930215D01*
X229485251Y-70930215D01*
X228990013Y-71273072D02*
X228990013Y-70473072D01*
X228532870Y-71273072D01*
X228532870Y-70473072D01*
X228151918Y-71273072D02*
X228151918Y-70473072D01*
X227961442Y-70473072D01*
X227847156Y-70511168D01*
X227770965Y-70587358D01*
X227732870Y-70663548D01*
X227694775Y-70815929D01*
X227694775Y-70930215D01*
X227732870Y-71082596D01*
X227770965Y-71158787D01*
X227847156Y-71234977D01*
X227961442Y-71273072D01*
X228151918Y-71273072D01*
X229732870Y-89053072D02*
X229732870Y-88253072D01*
X229428108Y-88253072D01*
X229351918Y-88291168D01*
X229313822Y-88329263D01*
X229275727Y-88405453D01*
X229275727Y-88519739D01*
X229313822Y-88595929D01*
X229351918Y-88634025D01*
X229428108Y-88672120D01*
X229732870Y-88672120D01*
X228513822Y-89053072D02*
X228970965Y-89053072D01*
X228742394Y-89053072D02*
X228742394Y-88253072D01*
X228818584Y-88367358D01*
X228894775Y-88443548D01*
X228970965Y-88481644D01*
X227790013Y-88253072D02*
X228170965Y-88253072D01*
X228209061Y-88634025D01*
X228170965Y-88595929D01*
X228094775Y-88557834D01*
X227904299Y-88557834D01*
X227828108Y-88595929D01*
X227790013Y-88634025D01*
X227751918Y-88710215D01*
X227751918Y-88900691D01*
X227790013Y-88976882D01*
X227828108Y-89014977D01*
X227904299Y-89053072D01*
X228094775Y-89053072D01*
X228170965Y-89014977D01*
X228209061Y-88976882D01*
X239332870Y-86513072D02*
X239332870Y-85713072D01*
X239028108Y-85713072D01*
X238951918Y-85751168D01*
X238913822Y-85789263D01*
X238875727Y-85865453D01*
X238875727Y-85979739D01*
X238913822Y-86055929D01*
X238951918Y-86094025D01*
X239028108Y-86132120D01*
X239332870Y-86132120D01*
X238380489Y-85713072D02*
X238304299Y-85713072D01*
X238228108Y-85751168D01*
X238190013Y-85789263D01*
X238151918Y-85865453D01*
X238113822Y-86017834D01*
X238113822Y-86208310D01*
X238151918Y-86360691D01*
X238190013Y-86436882D01*
X238228108Y-86474977D01*
X238304299Y-86513072D01*
X238380489Y-86513072D01*
X238456680Y-86474977D01*
X238494775Y-86436882D01*
X238532870Y-86360691D01*
X238570965Y-86208310D01*
X238570965Y-86017834D01*
X238532870Y-85865453D01*
X238494775Y-85789263D01*
X238456680Y-85751168D01*
X238380489Y-85713072D01*
X237390013Y-85713072D02*
X237770965Y-85713072D01*
X237809061Y-86094025D01*
X237770965Y-86055929D01*
X237694775Y-86017834D01*
X237504299Y-86017834D01*
X237428108Y-86055929D01*
X237390013Y-86094025D01*
X237351918Y-86170215D01*
X237351918Y-86360691D01*
X237390013Y-86436882D01*
X237428108Y-86474977D01*
X237504299Y-86513072D01*
X237694775Y-86513072D01*
X237770965Y-86474977D01*
X237809061Y-86436882D01*
X239332870Y-71273072D02*
X239332870Y-70473072D01*
X239028108Y-70473072D01*
X238951918Y-70511168D01*
X238913822Y-70549263D01*
X238875727Y-70625453D01*
X238875727Y-70739739D01*
X238913822Y-70815929D01*
X238951918Y-70854025D01*
X239028108Y-70892120D01*
X239332870Y-70892120D01*
X238380489Y-70473072D02*
X238304299Y-70473072D01*
X238228108Y-70511168D01*
X238190013Y-70549263D01*
X238151918Y-70625453D01*
X238113822Y-70777834D01*
X238113822Y-70968310D01*
X238151918Y-71120691D01*
X238190013Y-71196882D01*
X238228108Y-71234977D01*
X238304299Y-71273072D01*
X238380489Y-71273072D01*
X238456680Y-71234977D01*
X238494775Y-71196882D01*
X238532870Y-71120691D01*
X238570965Y-70968310D01*
X238570965Y-70777834D01*
X238532870Y-70625453D01*
X238494775Y-70549263D01*
X238456680Y-70511168D01*
X238380489Y-70473072D01*
X237618584Y-70473072D02*
X237542394Y-70473072D01*
X237466203Y-70511168D01*
X237428108Y-70549263D01*
X237390013Y-70625453D01*
X237351918Y-70777834D01*
X237351918Y-70968310D01*
X237390013Y-71120691D01*
X237428108Y-71196882D01*
X237466203Y-71234977D01*
X237542394Y-71273072D01*
X237618584Y-71273072D01*
X237694775Y-71234977D01*
X237732870Y-71196882D01*
X237770965Y-71120691D01*
X237809061Y-70968310D01*
X237809061Y-70777834D01*
X237770965Y-70625453D01*
X237732870Y-70549263D01*
X237694775Y-70511168D01*
X237618584Y-70473072D01*
X239332870Y-89053072D02*
X239332870Y-88253072D01*
X239028108Y-88253072D01*
X238951918Y-88291168D01*
X238913822Y-88329263D01*
X238875727Y-88405453D01*
X238875727Y-88519739D01*
X238913822Y-88595929D01*
X238951918Y-88634025D01*
X239028108Y-88672120D01*
X239332870Y-88672120D01*
X238380489Y-88253072D02*
X238304299Y-88253072D01*
X238228108Y-88291168D01*
X238190013Y-88329263D01*
X238151918Y-88405453D01*
X238113822Y-88557834D01*
X238113822Y-88748310D01*
X238151918Y-88900691D01*
X238190013Y-88976882D01*
X238228108Y-89014977D01*
X238304299Y-89053072D01*
X238380489Y-89053072D01*
X238456680Y-89014977D01*
X238494775Y-88976882D01*
X238532870Y-88900691D01*
X238570965Y-88748310D01*
X238570965Y-88557834D01*
X238532870Y-88405453D01*
X238494775Y-88329263D01*
X238456680Y-88291168D01*
X238380489Y-88253072D01*
X237428108Y-88253072D02*
X237580489Y-88253072D01*
X237656680Y-88291168D01*
X237694775Y-88329263D01*
X237770965Y-88443548D01*
X237809061Y-88595929D01*
X237809061Y-88900691D01*
X237770965Y-88976882D01*
X237732870Y-89014977D01*
X237656680Y-89053072D01*
X237504299Y-89053072D01*
X237428108Y-89014977D01*
X237390013Y-88976882D01*
X237351918Y-88900691D01*
X237351918Y-88710215D01*
X237390013Y-88634025D01*
X237428108Y-88595929D01*
X237504299Y-88557834D01*
X237656680Y-88557834D01*
X237732870Y-88595929D01*
X237770965Y-88634025D01*
X237809061Y-88710215D01*
X239332870Y-81433072D02*
X239332870Y-80633072D01*
X239028108Y-80633072D01*
X238951918Y-80671168D01*
X238913822Y-80709263D01*
X238875727Y-80785453D01*
X238875727Y-80899739D01*
X238913822Y-80975929D01*
X238951918Y-81014025D01*
X239028108Y-81052120D01*
X239332870Y-81052120D01*
X238380489Y-80633072D02*
X238304299Y-80633072D01*
X238228108Y-80671168D01*
X238190013Y-80709263D01*
X238151918Y-80785453D01*
X238113822Y-80937834D01*
X238113822Y-81128310D01*
X238151918Y-81280691D01*
X238190013Y-81356882D01*
X238228108Y-81394977D01*
X238304299Y-81433072D01*
X238380489Y-81433072D01*
X238456680Y-81394977D01*
X238494775Y-81356882D01*
X238532870Y-81280691D01*
X238570965Y-81128310D01*
X238570965Y-80937834D01*
X238532870Y-80785453D01*
X238494775Y-80709263D01*
X238456680Y-80671168D01*
X238380489Y-80633072D01*
X237847156Y-80633072D02*
X237351918Y-80633072D01*
X237618584Y-80937834D01*
X237504299Y-80937834D01*
X237428108Y-80975929D01*
X237390013Y-81014025D01*
X237351918Y-81090215D01*
X237351918Y-81280691D01*
X237390013Y-81356882D01*
X237428108Y-81394977D01*
X237504299Y-81433072D01*
X237732870Y-81433072D01*
X237809061Y-81394977D01*
X237847156Y-81356882D01*
X229732870Y-78893072D02*
X229732870Y-78093072D01*
X229428108Y-78093072D01*
X229351918Y-78131168D01*
X229313822Y-78169263D01*
X229275727Y-78245453D01*
X229275727Y-78359739D01*
X229313822Y-78435929D01*
X229351918Y-78474025D01*
X229428108Y-78512120D01*
X229732870Y-78512120D01*
X228970965Y-78169263D02*
X228932870Y-78131168D01*
X228856680Y-78093072D01*
X228666203Y-78093072D01*
X228590013Y-78131168D01*
X228551918Y-78169263D01*
X228513822Y-78245453D01*
X228513822Y-78321644D01*
X228551918Y-78435929D01*
X229009061Y-78893072D01*
X228513822Y-78893072D01*
X227751918Y-78893072D02*
X228209061Y-78893072D01*
X227980489Y-78893072D02*
X227980489Y-78093072D01*
X228056680Y-78207358D01*
X228132870Y-78283548D01*
X228209061Y-78321644D01*
D11*
%TO.C,D6*%
X157311442Y-62941168D02*
X157811442Y-62941168D01*
X157311442Y-63341168D02*
X156711442Y-62941168D01*
X156711442Y-62941168D02*
X156711442Y-63491168D01*
X156311442Y-62941168D02*
X156711442Y-62941168D01*
X157311442Y-62541168D02*
X157311442Y-63341168D01*
X156711442Y-62941168D02*
X157311442Y-62541168D01*
X156711442Y-62941168D02*
X156711442Y-62391168D01*
%TO.C,D16*%
X193027244Y-122450591D02*
X193525341Y-122494169D01*
X192992381Y-122849069D02*
X192429527Y-122398297D01*
X192429527Y-122398297D02*
X193062106Y-122052113D01*
X193062106Y-122052113D02*
X192992381Y-122849069D01*
X192031049Y-122363435D02*
X192429527Y-122398297D01*
X192429527Y-122398297D02*
X192477463Y-121850390D01*
X192429527Y-122398297D02*
X192381591Y-122946205D01*
%TO.C,D1*%
X138311446Y-108841166D02*
X138711446Y-108841166D01*
X138711446Y-108841166D02*
X138711446Y-108291166D01*
X139311446Y-108841166D02*
X139811446Y-108841166D01*
X138711446Y-108841166D02*
X139311446Y-108441166D01*
X139311446Y-109241166D02*
X138711446Y-108841166D01*
X138711446Y-108841166D02*
X138711446Y-109391166D01*
X139311446Y-108441166D02*
X139311446Y-109241166D01*
%TO.C,D8*%
X175311442Y-75241174D02*
X174711442Y-74841174D01*
X175311442Y-74441174D02*
X175311442Y-75241174D01*
X175311442Y-74841174D02*
X175811442Y-74841174D01*
X174311442Y-74841174D02*
X174711442Y-74841174D01*
X174711442Y-74841174D02*
X174711442Y-74291174D01*
X174711442Y-74841174D02*
X174711442Y-75391174D01*
X174711442Y-74841174D02*
X175311442Y-74441174D01*
%TO.C,D3*%
X139311449Y-74441168D02*
X139311449Y-75241168D01*
X138711449Y-74841168D02*
X138711449Y-75391168D01*
X138711449Y-74841168D02*
X138711449Y-74291168D01*
X139311449Y-74841168D02*
X139811449Y-74841168D01*
X138711449Y-74841168D02*
X139311449Y-74441168D01*
X138311449Y-74841168D02*
X138711449Y-74841168D01*
X139311449Y-75241168D02*
X138711449Y-74841168D01*
%TO.C,D5*%
X157311445Y-80341170D02*
X156711445Y-79941170D01*
X156711445Y-79941170D02*
X156711445Y-79391170D01*
X156711445Y-79941170D02*
X156711445Y-80491170D01*
X157311445Y-79941170D02*
X157811445Y-79941170D01*
X157311445Y-79541170D02*
X157311445Y-80341170D01*
X156311445Y-79941170D02*
X156711445Y-79941170D01*
X156711445Y-79941170D02*
X157311445Y-79541170D01*
%TO.C,D18*%
X239991328Y-130388268D02*
X240646650Y-130847130D01*
X239974843Y-131109190D02*
X239524310Y-130793723D01*
X239974843Y-131109190D02*
X239991328Y-130388268D01*
X239974843Y-131109190D02*
X240425377Y-131424657D01*
X240646650Y-130847130D02*
X239974843Y-131109190D01*
X240318989Y-130617699D02*
X240605777Y-130208123D01*
X239745413Y-131436851D02*
X239974843Y-131109190D01*
%TO.C,D12*%
X192711444Y-63791175D02*
X193311444Y-63391175D01*
X193311444Y-63791175D02*
X193811444Y-63791175D01*
X192711444Y-63791175D02*
X192711444Y-64341175D01*
X193311444Y-63391175D02*
X193311444Y-64191175D01*
X192711444Y-63791175D02*
X192711444Y-63241175D01*
X193311444Y-64191175D02*
X192711444Y-63791175D01*
X192311444Y-63791175D02*
X192711444Y-63791175D01*
%TO.C,D15*%
X211311447Y-66741168D02*
X210711447Y-66341168D01*
X211311447Y-65941168D02*
X211311447Y-66741168D01*
X210711447Y-66341168D02*
X210711447Y-65791168D01*
X210311447Y-66341168D02*
X210711447Y-66341168D01*
X210711447Y-66341168D02*
X210711447Y-66891168D01*
X210711447Y-66341168D02*
X211311447Y-65941168D01*
X211311447Y-66341168D02*
X211811447Y-66341168D01*
%TO.C,D13*%
X210311444Y-100341176D02*
X210711444Y-100341176D01*
X211311444Y-99941176D02*
X211311444Y-100741176D01*
X210711444Y-100341176D02*
X211311444Y-99941176D01*
X211311444Y-100341176D02*
X211811444Y-100341176D01*
X211311444Y-100741176D02*
X210711444Y-100341176D01*
X210711444Y-100341176D02*
X210711444Y-99791176D01*
X210711444Y-100341176D02*
X210711444Y-100891176D01*
%TO.C,D17*%
X215382740Y-126786343D02*
X215758617Y-126923151D01*
X215758617Y-126923151D02*
X215946728Y-126406320D01*
X215758617Y-126923151D02*
X215570506Y-127439982D01*
X215758617Y-126923151D02*
X216459240Y-126752486D01*
X216459240Y-126752486D02*
X216185624Y-127504240D01*
X216185624Y-127504240D02*
X215758617Y-126923151D01*
X216322432Y-127128363D02*
X216792278Y-127299373D01*
%TO.C,D11*%
X192711444Y-80791162D02*
X192711444Y-80241162D01*
X192311444Y-80791162D02*
X192711444Y-80791162D01*
X192711444Y-80791162D02*
X193311444Y-80391162D01*
X193311444Y-80391162D02*
X193311444Y-81191162D01*
X193311444Y-81191162D02*
X192711444Y-80791162D01*
X192711444Y-80791162D02*
X192711444Y-81341162D01*
X193311444Y-80791162D02*
X193811444Y-80791162D01*
D10*
%TO.C,T2*%
X242411444Y-103841167D02*
X242411444Y-107141167D01*
X239561444Y-107141167D02*
X242411444Y-107141167D01*
X242411444Y-100541167D02*
X239561444Y-100541167D01*
X239561444Y-100541167D02*
X239561444Y-107141167D01*
X242411444Y-103841167D02*
X242411444Y-100541167D01*
X242411444Y-105791167D02*
X242411444Y-101891167D01*
D11*
%TO.C,D14*%
X211311440Y-82941165D02*
X211311440Y-83741165D01*
X210311440Y-83341165D02*
X210711440Y-83341165D01*
X210711440Y-83341165D02*
X210711440Y-83891165D01*
X210711440Y-83341165D02*
X211311440Y-82941165D01*
X211311440Y-83741165D02*
X210711440Y-83341165D01*
X211311440Y-83341165D02*
X211811440Y-83341165D01*
X210711440Y-83341165D02*
X210711440Y-82791165D01*
%TO.C,D7*%
X174711437Y-91841170D02*
X175311437Y-91441170D01*
X175311437Y-92241170D02*
X174711437Y-91841170D01*
X174311437Y-91841170D02*
X174711437Y-91841170D01*
X175311437Y-91841170D02*
X175811437Y-91841170D01*
X174711437Y-91841170D02*
X174711437Y-91291170D01*
X174711437Y-91841170D02*
X174711437Y-92391170D01*
X175311437Y-91441170D02*
X175311437Y-92241170D01*
%TO.C,D10*%
X192711448Y-97791167D02*
X192711448Y-98341167D01*
X192311448Y-97791167D02*
X192711448Y-97791167D01*
X193311448Y-97391167D02*
X193311448Y-98191167D01*
X192711448Y-97791167D02*
X192711448Y-97241167D01*
X193311448Y-97791167D02*
X193811448Y-97791167D01*
X193311448Y-98191167D02*
X192711448Y-97791167D01*
X192711448Y-97791167D02*
X193311448Y-97391167D01*
%TO.C,D4*%
X156711444Y-96941166D02*
X157311444Y-96541166D01*
X156311444Y-96941166D02*
X156711444Y-96941166D01*
X157311444Y-96941166D02*
X157811444Y-96941166D01*
X157311444Y-96541166D02*
X157311444Y-97341166D01*
X156711444Y-96941166D02*
X156711444Y-96391166D01*
X157311444Y-97341166D02*
X156711444Y-96941166D01*
X156711444Y-96941166D02*
X156711444Y-97491166D01*
%TO.C,D9*%
X174311442Y-57841165D02*
X174711442Y-57841165D01*
X175311442Y-57841165D02*
X175811442Y-57841165D01*
X175311442Y-58241165D02*
X174711442Y-57841165D01*
X174711442Y-57841165D02*
X175311442Y-57441165D01*
X174711442Y-57841165D02*
X174711442Y-57291165D01*
X174711442Y-57841165D02*
X174711442Y-58391165D01*
X175311442Y-57441165D02*
X175311442Y-58241165D01*
%TO.C,D2*%
X139311440Y-92241171D02*
X138711440Y-91841171D01*
X139311440Y-91841171D02*
X139811440Y-91841171D01*
X138711440Y-91841171D02*
X138711440Y-91291171D01*
X139311440Y-91441171D02*
X139311440Y-92241171D01*
X138711440Y-91841171D02*
X139311440Y-91441171D01*
X138711440Y-91841171D02*
X138711440Y-92391171D01*
X138311440Y-91841171D02*
X138711440Y-91841171D01*
D10*
%TO.C,MCU2*%
X227211442Y-69641168D02*
X224671442Y-69641168D01*
X227211442Y-67101168D02*
X224671442Y-67101168D01*
X242451442Y-97581168D02*
X242451442Y-64561168D01*
X224671442Y-97581168D02*
X242451442Y-97581168D01*
X242451442Y-64561168D02*
X224671442Y-64561168D01*
X224671442Y-64561168D02*
X224671442Y-97581168D01*
X227211442Y-67101168D02*
X227211442Y-69641168D01*
%TO.C,G\u002A\u002A\u002A*%
G36*
X164997723Y-115909343D02*
G01*
X164509871Y-115900797D01*
X164570557Y-115958623D01*
X164602851Y-115993172D01*
X164645991Y-116044577D01*
X164694319Y-116105873D01*
X164742201Y-116170116D01*
X164776612Y-116218132D01*
X164811579Y-116269146D01*
X164833939Y-116306758D01*
X164846469Y-116336616D01*
X164851949Y-116364371D01*
X164853158Y-116395672D01*
X164853158Y-116467560D01*
X164712208Y-116477463D01*
X164663928Y-116481763D01*
X164570336Y-116498037D01*
X164500793Y-116524564D01*
X164452614Y-116563176D01*
X164423116Y-116615705D01*
X164409613Y-116683983D01*
X164409774Y-116729949D01*
X164429213Y-116801522D01*
X164470585Y-116858997D01*
X164530910Y-116900609D01*
X164607209Y-116924593D01*
X164696500Y-116929185D01*
X164795803Y-116912621D01*
X164848380Y-116898618D01*
X164895858Y-116888656D01*
X164926315Y-116890310D01*
X164945991Y-116906309D01*
X164961129Y-116939383D01*
X164977970Y-116992260D01*
X164982123Y-117005653D01*
X164997187Y-117054557D01*
X165007809Y-117089550D01*
X165011906Y-117103789D01*
X165011733Y-117105161D01*
X164995823Y-117117040D01*
X164958796Y-117131409D01*
X164907098Y-117146110D01*
X164847172Y-117158982D01*
X164785944Y-117168432D01*
X164633131Y-117175744D01*
X164493414Y-117157472D01*
X164367020Y-117113639D01*
X164302625Y-117076292D01*
X164225364Y-117004828D01*
X164169551Y-116914592D01*
X164135696Y-116806495D01*
X164124310Y-116681446D01*
X164124889Y-116652468D01*
X164139911Y-116544165D01*
X164176233Y-116452600D01*
X164235141Y-116374211D01*
X164278525Y-116339674D01*
X164346119Y-116304086D01*
X164419740Y-116278957D01*
X164487011Y-116269437D01*
X164539015Y-116269437D01*
X164502790Y-116240942D01*
X164492894Y-116231644D01*
X164464079Y-116199437D01*
X164424295Y-116151285D01*
X164377428Y-116091945D01*
X164327363Y-116026173D01*
X164188161Y-115839899D01*
X164188161Y-115662265D01*
X164997723Y-115662265D01*
X164997723Y-115909343D01*
G37*
G36*
X166559021Y-117151281D02*
G01*
X166269891Y-117151281D01*
X166269891Y-116934434D01*
X166269854Y-116876603D01*
X166269355Y-116810059D01*
X166267752Y-116765280D01*
X166264398Y-116737958D01*
X166258646Y-116723785D01*
X166249851Y-116718452D01*
X166237364Y-116717650D01*
X166227287Y-116719653D01*
X166210900Y-116730887D01*
X166190015Y-116754822D01*
X166162289Y-116794623D01*
X166125379Y-116853459D01*
X166076942Y-116934497D01*
X165949047Y-117151281D01*
X165617676Y-117151281D01*
X165665497Y-117067784D01*
X165690583Y-117023947D01*
X165726139Y-116961761D01*
X165766635Y-116890898D01*
X165807285Y-116819731D01*
X165832983Y-116775689D01*
X165880488Y-116701140D01*
X165920453Y-116649410D01*
X165954915Y-116617713D01*
X165970514Y-116606451D01*
X165997997Y-116584198D01*
X166009127Y-116571272D01*
X166008266Y-116568787D01*
X165992384Y-116552517D01*
X165962692Y-116529916D01*
X165948067Y-116515584D01*
X165918817Y-116479601D01*
X165880715Y-116428416D01*
X165837313Y-116367237D01*
X165792164Y-116301271D01*
X165748818Y-116235727D01*
X165710829Y-116175810D01*
X165681749Y-116126728D01*
X165665130Y-116093690D01*
X165673525Y-116089427D01*
X165705437Y-116085320D01*
X165755812Y-116082531D01*
X165819046Y-116081503D01*
X165977782Y-116081503D01*
X166096648Y-116291536D01*
X166119354Y-116331717D01*
X166161593Y-116405873D01*
X166195098Y-116461355D01*
X166220878Y-116497026D01*
X166239942Y-116511748D01*
X166253303Y-116504385D01*
X166261968Y-116473798D01*
X166266950Y-116418851D01*
X166269258Y-116338405D01*
X166269901Y-116231323D01*
X166269891Y-116096468D01*
X166269891Y-115662265D01*
X166559021Y-115662265D01*
X166559021Y-117151281D01*
G37*
G36*
X167946895Y-116424844D02*
G01*
X167946983Y-116506406D01*
X167947494Y-116597402D01*
X167948719Y-116666237D01*
X167950948Y-116716835D01*
X167954468Y-116753117D01*
X167959570Y-116779007D01*
X167966543Y-116798427D01*
X167975676Y-116815300D01*
X168015038Y-116862387D01*
X168069347Y-116898782D01*
X168128798Y-116917748D01*
X168186284Y-116917106D01*
X168234700Y-116894679D01*
X168235075Y-116894368D01*
X168252520Y-116872996D01*
X168266408Y-116839249D01*
X168277060Y-116790380D01*
X168284795Y-116723640D01*
X168289935Y-116636279D01*
X168292801Y-116525550D01*
X168293712Y-116388703D01*
X168293796Y-116081503D01*
X168582925Y-116081503D01*
X168582815Y-116403159D01*
X168582566Y-116476697D01*
X168580293Y-116622524D01*
X168575455Y-116743244D01*
X168567817Y-116841432D01*
X168557143Y-116919663D01*
X168543197Y-116980515D01*
X168525744Y-117026561D01*
X168480861Y-117088958D01*
X168415910Y-117138396D01*
X168339991Y-117167202D01*
X168278178Y-117173628D01*
X168197265Y-117170212D01*
X168117589Y-117156888D01*
X168052569Y-117135153D01*
X168035335Y-117125858D01*
X167985558Y-117090987D01*
X167942154Y-117050995D01*
X167892260Y-116995768D01*
X167872481Y-117069910D01*
X167852702Y-117144053D01*
X167738943Y-117148307D01*
X167625183Y-117152562D01*
X167636146Y-117112166D01*
X167638183Y-117097239D01*
X167641057Y-117054524D01*
X167643956Y-116989286D01*
X167646761Y-116905203D01*
X167649353Y-116805949D01*
X167651614Y-116695201D01*
X167653425Y-116576636D01*
X167659740Y-116081503D01*
X167946841Y-116081503D01*
X167946895Y-116424844D01*
G37*
G36*
X167136329Y-111433757D02*
G01*
X167611653Y-111433771D01*
X168060004Y-111433797D01*
X168482175Y-111433839D01*
X168878961Y-111433899D01*
X169251154Y-111433980D01*
X169599548Y-111434087D01*
X169924936Y-111434222D01*
X170228112Y-111434389D01*
X170509869Y-111434590D01*
X170771000Y-111434829D01*
X171012299Y-111435110D01*
X171234559Y-111435435D01*
X171438574Y-111435808D01*
X171625137Y-111436232D01*
X171795041Y-111436710D01*
X171949080Y-111437245D01*
X172088047Y-111437842D01*
X172212736Y-111438502D01*
X172323940Y-111439230D01*
X172422452Y-111440028D01*
X172509065Y-111440899D01*
X172584574Y-111441848D01*
X172649771Y-111442877D01*
X172705451Y-111443990D01*
X172752405Y-111445189D01*
X172791429Y-111446478D01*
X172823314Y-111447861D01*
X172848855Y-111449340D01*
X172868845Y-111450919D01*
X172884077Y-111452600D01*
X172895344Y-111454388D01*
X172903441Y-111456286D01*
X172909160Y-111458296D01*
X172913296Y-111460422D01*
X172940771Y-111480034D01*
X172989044Y-111536564D01*
X173016445Y-111604013D01*
X173022926Y-111676246D01*
X173008441Y-111747128D01*
X172972942Y-111810522D01*
X172916381Y-111860295D01*
X172914772Y-111861261D01*
X172910577Y-111863497D01*
X172905290Y-111865610D01*
X172898115Y-111867603D01*
X172888258Y-111869479D01*
X172874923Y-111871243D01*
X172857316Y-111872897D01*
X172834641Y-111874445D01*
X172806105Y-111875891D01*
X172770912Y-111877238D01*
X172728267Y-111878489D01*
X172677376Y-111879649D01*
X172617443Y-111880720D01*
X172547674Y-111881706D01*
X172467274Y-111882611D01*
X172375448Y-111883438D01*
X172271401Y-111884191D01*
X172154339Y-111884873D01*
X172023466Y-111885487D01*
X171877987Y-111886038D01*
X171717108Y-111886528D01*
X171540034Y-111886961D01*
X171345970Y-111887341D01*
X171134121Y-111887671D01*
X170903692Y-111887955D01*
X170653889Y-111888196D01*
X170383916Y-111888398D01*
X170092979Y-111888563D01*
X169780283Y-111888697D01*
X169445033Y-111888802D01*
X169086434Y-111888881D01*
X168703691Y-111888938D01*
X168296009Y-111888978D01*
X167862594Y-111889002D01*
X167402651Y-111889015D01*
X166915384Y-111889020D01*
X166400000Y-111889021D01*
X166182456Y-111889021D01*
X165678848Y-111889019D01*
X165203027Y-111889011D01*
X164754199Y-111888993D01*
X164331570Y-111888963D01*
X163934344Y-111888917D01*
X163561726Y-111888851D01*
X163212922Y-111888761D01*
X162887137Y-111888645D01*
X162583575Y-111888499D01*
X162301443Y-111888318D01*
X162039944Y-111888101D01*
X161798285Y-111887843D01*
X161575671Y-111887540D01*
X161371306Y-111887190D01*
X161184395Y-111886788D01*
X161014145Y-111886331D01*
X160859759Y-111885816D01*
X160720444Y-111885240D01*
X160595404Y-111884598D01*
X160483844Y-111883887D01*
X160384970Y-111883104D01*
X160297987Y-111882245D01*
X160222099Y-111881307D01*
X160156512Y-111880285D01*
X160100432Y-111879178D01*
X160053062Y-111877981D01*
X160013609Y-111876690D01*
X159981278Y-111875302D01*
X159955273Y-111873814D01*
X159934800Y-111872223D01*
X159919064Y-111870523D01*
X159907270Y-111868713D01*
X159898624Y-111866789D01*
X159892329Y-111864747D01*
X159887592Y-111862583D01*
X159883618Y-111860295D01*
X159825352Y-111809663D01*
X159790554Y-111742681D01*
X159778995Y-111658721D01*
X159790628Y-111577614D01*
X159826353Y-111511618D01*
X159886704Y-111460422D01*
X159888401Y-111459460D01*
X159893143Y-111457386D01*
X159899824Y-111455427D01*
X159909235Y-111453579D01*
X159922170Y-111451838D01*
X159939424Y-111450203D01*
X159961788Y-111448669D01*
X159990057Y-111447233D01*
X160025024Y-111445893D01*
X160067482Y-111444644D01*
X160118225Y-111443484D01*
X160178046Y-111442409D01*
X160247738Y-111441416D01*
X160328096Y-111440502D01*
X160419911Y-111439663D01*
X160523979Y-111438897D01*
X160641091Y-111438200D01*
X160772042Y-111437568D01*
X160917624Y-111436999D01*
X161078632Y-111436490D01*
X161255859Y-111436036D01*
X161450097Y-111435636D01*
X161662141Y-111435285D01*
X161892784Y-111434980D01*
X162142819Y-111434718D01*
X162413040Y-111434496D01*
X162704239Y-111434311D01*
X163017211Y-111434158D01*
X163352749Y-111434036D01*
X163711646Y-111433941D01*
X164094695Y-111433869D01*
X164502691Y-111433818D01*
X164936425Y-111433784D01*
X165396693Y-111433763D01*
X165884286Y-111433753D01*
X166400000Y-111433751D01*
X166633240Y-111433751D01*
X167136329Y-111433757D01*
G37*
G36*
X163817626Y-116903366D02*
G01*
X163760150Y-117000248D01*
X163684293Y-117077343D01*
X163590892Y-117133191D01*
X163480783Y-117166332D01*
X163447360Y-117170771D01*
X163359205Y-117172328D01*
X163267877Y-117162795D01*
X163188753Y-117143378D01*
X163168487Y-117135667D01*
X163073118Y-117081870D01*
X162995067Y-117007139D01*
X162936559Y-116914816D01*
X162899821Y-116808241D01*
X162887914Y-116698446D01*
X163162462Y-116698446D01*
X163175997Y-116771201D01*
X163210379Y-116838741D01*
X163265093Y-116894844D01*
X163284238Y-116907278D01*
X163348917Y-116928531D01*
X163417659Y-116925308D01*
X163483855Y-116898690D01*
X163540896Y-116849756D01*
X163547527Y-116841137D01*
X163574502Y-116789587D01*
X163594578Y-116725991D01*
X163604692Y-116662373D01*
X163601782Y-116610755D01*
X163589062Y-116579448D01*
X163549541Y-116534506D01*
X163493328Y-116501774D01*
X163427069Y-116482817D01*
X163357413Y-116479201D01*
X163291007Y-116492491D01*
X163234498Y-116524253D01*
X163199984Y-116562164D01*
X163170287Y-116626694D01*
X163162462Y-116698446D01*
X162887914Y-116698446D01*
X162887080Y-116690756D01*
X162889634Y-116629264D01*
X162911469Y-116513724D01*
X162955480Y-116416376D01*
X163021495Y-116337540D01*
X163109340Y-116277538D01*
X163156729Y-116255319D01*
X163198740Y-116242288D01*
X163246324Y-116236341D01*
X163311110Y-116235028D01*
X163356728Y-116236256D01*
X163436391Y-116246962D01*
X163500148Y-116270624D01*
X163555734Y-116309600D01*
X163558130Y-116311693D01*
X163572657Y-116322448D01*
X163574259Y-116314579D01*
X163564352Y-116283849D01*
X163557349Y-116265382D01*
X163508102Y-116174795D01*
X163438172Y-116086835D01*
X163354028Y-116007761D01*
X163262141Y-115943834D01*
X163168981Y-115901314D01*
X163127563Y-115887227D01*
X163089591Y-115872842D01*
X163070468Y-115863646D01*
X163069312Y-115861802D01*
X163069378Y-115839080D01*
X163076764Y-115797880D01*
X163090239Y-115745552D01*
X163121784Y-115636985D01*
X163203208Y-115657939D01*
X163301724Y-115689607D01*
X163440446Y-115758385D01*
X163563619Y-115850192D01*
X163668522Y-115962865D01*
X163752434Y-116094242D01*
X163784197Y-116159075D01*
X163824978Y-116262376D01*
X163852076Y-116367550D01*
X163869423Y-116487820D01*
X163871408Y-116508602D01*
X163874091Y-116656083D01*
X163873224Y-116662373D01*
X163855885Y-116788158D01*
X163817626Y-116903366D01*
G37*
G36*
X170115236Y-105724595D02*
G01*
X170180548Y-105754620D01*
X170233861Y-105807031D01*
X170255324Y-105848827D01*
X170270815Y-105917431D01*
X170270043Y-105988669D01*
X170252065Y-106049969D01*
X170240862Y-106070289D01*
X170216209Y-106113823D01*
X170179545Y-106178045D01*
X170132129Y-106260778D01*
X170075220Y-106359843D01*
X170010076Y-106473061D01*
X169937958Y-106598256D01*
X169860125Y-106733248D01*
X169777835Y-106875859D01*
X169692348Y-107023912D01*
X169604923Y-107175227D01*
X169516820Y-107327627D01*
X169429298Y-107478934D01*
X169343615Y-107626970D01*
X169261032Y-107769556D01*
X169182806Y-107904513D01*
X169110199Y-108029665D01*
X169044468Y-108142833D01*
X168986873Y-108241838D01*
X168938674Y-108324502D01*
X168901129Y-108388648D01*
X168875497Y-108432097D01*
X168863039Y-108452670D01*
X168855681Y-108463274D01*
X168819197Y-108504769D01*
X168781123Y-108535741D01*
X168740418Y-108553888D01*
X168669140Y-108563782D01*
X168595784Y-108552985D01*
X168529181Y-108523231D01*
X168478160Y-108476255D01*
X168475683Y-108472793D01*
X168444127Y-108406718D01*
X168432592Y-108333338D01*
X168443030Y-108264425D01*
X168447395Y-108255371D01*
X168465292Y-108222149D01*
X168495660Y-108167422D01*
X168537278Y-108093319D01*
X168588920Y-108001971D01*
X168649363Y-107895506D01*
X168717384Y-107776054D01*
X168791760Y-107645745D01*
X168871267Y-107506708D01*
X168954681Y-107361074D01*
X169040780Y-107210971D01*
X169128338Y-107058530D01*
X169216134Y-106905880D01*
X169302943Y-106755150D01*
X169387542Y-106608471D01*
X169468708Y-106467971D01*
X169545216Y-106335781D01*
X169615844Y-106214031D01*
X169679369Y-106104849D01*
X169734565Y-106010365D01*
X169780211Y-105932710D01*
X169815082Y-105874012D01*
X169837955Y-105836401D01*
X169849228Y-105819808D01*
X169904919Y-105764563D01*
X169971659Y-105729994D01*
X170043686Y-105716529D01*
X170115236Y-105724595D01*
G37*
G36*
X169858708Y-117155206D02*
G01*
X169804498Y-117159151D01*
X169730387Y-117161833D01*
X169645339Y-117163069D01*
X169555992Y-117162921D01*
X169468986Y-117161453D01*
X169390958Y-117158728D01*
X169328546Y-117154810D01*
X169288389Y-117149762D01*
X169275905Y-117147010D01*
X169160928Y-117108513D01*
X169052362Y-117049990D01*
X168960756Y-116977004D01*
X168914769Y-116926555D01*
X168844532Y-116819250D01*
X168795121Y-116694583D01*
X168766070Y-116551202D01*
X168759529Y-116434483D01*
X169077638Y-116434483D01*
X169089560Y-116560394D01*
X169114824Y-116663403D01*
X169154580Y-116745008D01*
X169210013Y-116807639D01*
X169282309Y-116853726D01*
X169329111Y-116871606D01*
X169410701Y-116890547D01*
X169495587Y-116899252D01*
X169569578Y-116895651D01*
X169609334Y-116889144D01*
X169609334Y-115922482D01*
X169482064Y-115922482D01*
X169414093Y-115923858D01*
X169364474Y-115929258D01*
X169323239Y-115940570D01*
X169280147Y-115959680D01*
X169253928Y-115973925D01*
X169183313Y-116028960D01*
X169131249Y-116100486D01*
X169096865Y-116190550D01*
X169079286Y-116301200D01*
X169077638Y-116434483D01*
X168759529Y-116434483D01*
X168756910Y-116387757D01*
X168757009Y-116375123D01*
X168769070Y-116212764D01*
X168801153Y-116071215D01*
X168853358Y-115950335D01*
X168925785Y-115849985D01*
X169018532Y-115770024D01*
X169131698Y-115710313D01*
X169265383Y-115670712D01*
X169339953Y-115659418D01*
X169442950Y-115651330D01*
X169559580Y-115648125D01*
X169681986Y-115650002D01*
X169802315Y-115657158D01*
X169912919Y-115666508D01*
X169912919Y-117149535D01*
X169858708Y-117155206D01*
G37*
G36*
X172383479Y-108620419D02*
G01*
X172438202Y-108661843D01*
X172478572Y-108717127D01*
X172502048Y-108781592D01*
X172506089Y-108850557D01*
X172488155Y-108919342D01*
X172445704Y-108983267D01*
X172433674Y-108992087D01*
X172398070Y-109014857D01*
X172341637Y-109049563D01*
X172266702Y-109094846D01*
X172175590Y-109149349D01*
X172070627Y-109211712D01*
X171954138Y-109280576D01*
X171828451Y-109354585D01*
X171695890Y-109432378D01*
X171558781Y-109512598D01*
X171419451Y-109593886D01*
X171280225Y-109674883D01*
X171143429Y-109754231D01*
X171011389Y-109830571D01*
X170886431Y-109902545D01*
X170770880Y-109968794D01*
X170667062Y-110027961D01*
X170577304Y-110078685D01*
X170503931Y-110119609D01*
X170449269Y-110149375D01*
X170377836Y-110176675D01*
X170299218Y-110183524D01*
X170226517Y-110166711D01*
X170164747Y-110127486D01*
X170118924Y-110067097D01*
X170113212Y-110055363D01*
X170089977Y-109975945D01*
X170093122Y-109899830D01*
X170121814Y-109831353D01*
X170175216Y-109774849D01*
X170177771Y-109772990D01*
X170207493Y-109753622D01*
X170258805Y-109722181D01*
X170329375Y-109679995D01*
X170416874Y-109628394D01*
X170518972Y-109568707D01*
X170633340Y-109502263D01*
X170757648Y-109430391D01*
X170889566Y-109354421D01*
X171026763Y-109275681D01*
X171166910Y-109195502D01*
X171307678Y-109115211D01*
X171446736Y-109036139D01*
X171581755Y-108959614D01*
X171710404Y-108886966D01*
X171830354Y-108819524D01*
X171939275Y-108758618D01*
X172034838Y-108705575D01*
X172114711Y-108661726D01*
X172176566Y-108628400D01*
X172218073Y-108606926D01*
X172236901Y-108598633D01*
X172241137Y-108597876D01*
X172316944Y-108597537D01*
X172383479Y-108620419D01*
G37*
G36*
X162846385Y-105698005D02*
G01*
X162908288Y-105734787D01*
X162916462Y-105745463D01*
X162938990Y-105780147D01*
X162973696Y-105836277D01*
X163019363Y-105911752D01*
X163074776Y-106004467D01*
X163138717Y-106112323D01*
X163209970Y-106233215D01*
X163287320Y-106365043D01*
X163369549Y-106505704D01*
X163455442Y-106653095D01*
X163543781Y-106805115D01*
X163633351Y-106959662D01*
X163722935Y-107114633D01*
X163811317Y-107267926D01*
X163897280Y-107417439D01*
X163979608Y-107561070D01*
X164057085Y-107696717D01*
X164128494Y-107822277D01*
X164192619Y-107935649D01*
X164248244Y-108034730D01*
X164294151Y-108117417D01*
X164329126Y-108181610D01*
X164351951Y-108225206D01*
X164361409Y-108246101D01*
X164367940Y-108322153D01*
X164348933Y-108396011D01*
X164307210Y-108460365D01*
X164245747Y-108508465D01*
X164242593Y-108510102D01*
X164192210Y-108527904D01*
X164140827Y-108535231D01*
X164101555Y-108530758D01*
X164041301Y-108511051D01*
X163987174Y-108480555D01*
X163950568Y-108444692D01*
X163948123Y-108440714D01*
X163932388Y-108414094D01*
X163903630Y-108364922D01*
X163862873Y-108294959D01*
X163811138Y-108205969D01*
X163749449Y-108099713D01*
X163678828Y-107977956D01*
X163600298Y-107842459D01*
X163514880Y-107694985D01*
X163423599Y-107537298D01*
X163327476Y-107371159D01*
X163227533Y-107198332D01*
X163160691Y-107082690D01*
X163051350Y-106893375D01*
X162955229Y-106726669D01*
X162871485Y-106581039D01*
X162799278Y-106454950D01*
X162737766Y-106346869D01*
X162686106Y-106255261D01*
X162643458Y-106178591D01*
X162608980Y-106115327D01*
X162581830Y-106063932D01*
X162561166Y-106022875D01*
X162546147Y-105990619D01*
X162535932Y-105965631D01*
X162529679Y-105946378D01*
X162526546Y-105931324D01*
X162525691Y-105918935D01*
X162536146Y-105845984D01*
X162566791Y-105777900D01*
X162613526Y-105727131D01*
X162627754Y-105717581D01*
X162697671Y-105689182D01*
X162773364Y-105682730D01*
X162846385Y-105698005D01*
G37*
G36*
X167159726Y-116064967D02*
G01*
X167259931Y-116078466D01*
X167338563Y-116106876D01*
X167398210Y-116151285D01*
X167441462Y-116212782D01*
X167464558Y-116269931D01*
X167480598Y-116369527D01*
X167469535Y-116472837D01*
X167465939Y-116486542D01*
X167434467Y-116557921D01*
X167382692Y-116618069D01*
X167307814Y-116669568D01*
X167207033Y-116715002D01*
X167182421Y-116724567D01*
X167123549Y-116749622D01*
X167074653Y-116773326D01*
X167044397Y-116791598D01*
X167024546Y-116811250D01*
X167008227Y-116850292D01*
X167016887Y-116888241D01*
X167048525Y-116919863D01*
X167101138Y-116939922D01*
X167122134Y-116941871D01*
X167176654Y-116938020D01*
X167243000Y-116926064D01*
X167311491Y-116907943D01*
X167372442Y-116885596D01*
X167426898Y-116861559D01*
X167442580Y-116901610D01*
X167447975Y-116915467D01*
X167475594Y-116989844D01*
X167492777Y-117043053D01*
X167498691Y-117072549D01*
X167497538Y-117076471D01*
X167477536Y-117093225D01*
X167437592Y-117112994D01*
X167384132Y-117133259D01*
X167323585Y-117151501D01*
X167262375Y-117165199D01*
X167202063Y-117171710D01*
X167125201Y-117172670D01*
X167046530Y-117167876D01*
X166976206Y-117157975D01*
X166924386Y-117143616D01*
X166902930Y-117133894D01*
X166822307Y-117079799D01*
X166763766Y-117008883D01*
X166728653Y-116924106D01*
X166718312Y-116828430D01*
X166734089Y-116724815D01*
X166755664Y-116674233D01*
X166809358Y-116609548D01*
X166889763Y-116552237D01*
X166995971Y-116503069D01*
X167043542Y-116484315D01*
X167119874Y-116448635D01*
X167169202Y-116415491D01*
X167192595Y-116383728D01*
X167191123Y-116352192D01*
X167165855Y-116319730D01*
X167161966Y-116316526D01*
X167119211Y-116299591D01*
X167056757Y-116295468D01*
X166980043Y-116304047D01*
X166894508Y-116325217D01*
X166804699Y-116353169D01*
X166774602Y-116254079D01*
X166773447Y-116250245D01*
X166760174Y-116199921D01*
X166753039Y-116160534D01*
X166753568Y-116140323D01*
X166771499Y-116125960D01*
X166814145Y-116108331D01*
X166873580Y-116091760D01*
X166943211Y-116077768D01*
X167016442Y-116067873D01*
X167086681Y-116063593D01*
X167159726Y-116064967D01*
G37*
G36*
X160611053Y-108614171D02*
G01*
X160613008Y-108615036D01*
X160639288Y-108628591D01*
X160687483Y-108654949D01*
X160755242Y-108692754D01*
X160840212Y-108740649D01*
X160940043Y-108797280D01*
X161052383Y-108861287D01*
X161174881Y-108931316D01*
X161305184Y-109006010D01*
X161440942Y-109084013D01*
X161579804Y-109163967D01*
X161719417Y-109244517D01*
X161857430Y-109324306D01*
X161991492Y-109401977D01*
X162119252Y-109476174D01*
X162238357Y-109545541D01*
X162346456Y-109608721D01*
X162441199Y-109664358D01*
X162520233Y-109711094D01*
X162581207Y-109747575D01*
X162621769Y-109772443D01*
X162639569Y-109784341D01*
X162683942Y-109840501D01*
X162707332Y-109908455D01*
X162709700Y-109980772D01*
X162691797Y-110050707D01*
X162654372Y-110111518D01*
X162598176Y-110156463D01*
X162593281Y-110158935D01*
X162538429Y-110176492D01*
X162476345Y-110183267D01*
X162467226Y-110183040D01*
X162452497Y-110181397D01*
X162435214Y-110177364D01*
X162413646Y-110170014D01*
X162386064Y-110158417D01*
X162350741Y-110141644D01*
X162305945Y-110118765D01*
X162249949Y-110088853D01*
X162181023Y-110050977D01*
X162097439Y-110004210D01*
X161997466Y-109947621D01*
X161879376Y-109880281D01*
X161741440Y-109801263D01*
X161581929Y-109709635D01*
X161399113Y-109604471D01*
X161342530Y-109571877D01*
X161187042Y-109481987D01*
X161038877Y-109395863D01*
X160900010Y-109314680D01*
X160772418Y-109239612D01*
X160658077Y-109171835D01*
X160558962Y-109112522D01*
X160477051Y-109062848D01*
X160414318Y-109023988D01*
X160372741Y-108997117D01*
X160354295Y-108983409D01*
X160318999Y-108933998D01*
X160294682Y-108863288D01*
X160293757Y-108790707D01*
X160315146Y-108722154D01*
X160357771Y-108663526D01*
X160420555Y-108620723D01*
X160477195Y-108600440D01*
X160543159Y-108595591D01*
X160611053Y-108614171D01*
G37*
G36*
X166776242Y-113291420D02*
G01*
X167101989Y-113291466D01*
X167401146Y-113291552D01*
X167674856Y-113291687D01*
X167924261Y-113291879D01*
X168150505Y-113292138D01*
X168354731Y-113292471D01*
X168538082Y-113292887D01*
X168701700Y-113293394D01*
X168846728Y-113294001D01*
X168974309Y-113294717D01*
X169085586Y-113295550D01*
X169181703Y-113296509D01*
X169263801Y-113297601D01*
X169333024Y-113298837D01*
X169390515Y-113300223D01*
X169437417Y-113301769D01*
X169474872Y-113303483D01*
X169504023Y-113305373D01*
X169526014Y-113307449D01*
X169541986Y-113309719D01*
X169553084Y-113312191D01*
X169560450Y-113314873D01*
X169613145Y-113351143D01*
X169654666Y-113407359D01*
X169676718Y-113473861D01*
X169679189Y-113544657D01*
X169661969Y-113613753D01*
X169624946Y-113675158D01*
X169568009Y-113722879D01*
X169515367Y-113753460D01*
X163293979Y-113746784D01*
X163254058Y-113716978D01*
X163233373Y-113700693D01*
X163186461Y-113650768D01*
X163161731Y-113594473D01*
X163154524Y-113522709D01*
X163155777Y-113489633D01*
X163170228Y-113424784D01*
X163204420Y-113372272D01*
X163262801Y-113323933D01*
X163310593Y-113291406D01*
X166422763Y-113291406D01*
X166776242Y-113291420D01*
G37*
G36*
X166421705Y-104462432D02*
G01*
X166503004Y-104480269D01*
X166564810Y-104519205D01*
X166607836Y-104579675D01*
X166608514Y-104581157D01*
X166612160Y-104591604D01*
X166615400Y-104606517D01*
X166618257Y-104627526D01*
X166620754Y-104656262D01*
X166622916Y-104694353D01*
X166624766Y-104743430D01*
X166626327Y-104805121D01*
X166627624Y-104881058D01*
X166628679Y-104972870D01*
X166629517Y-105082186D01*
X166630161Y-105210637D01*
X166630635Y-105359851D01*
X166630963Y-105531460D01*
X166631168Y-105727091D01*
X166631273Y-105948377D01*
X166631303Y-106196945D01*
X166631303Y-107764763D01*
X166598432Y-107813540D01*
X166595883Y-107817216D01*
X166558886Y-107859634D01*
X166516783Y-107895188D01*
X166471838Y-107917497D01*
X166400000Y-107928059D01*
X166328556Y-107916441D01*
X166259570Y-107877956D01*
X166201567Y-107813540D01*
X166168696Y-107764763D01*
X166168934Y-106194760D01*
X166169172Y-104624758D01*
X166201461Y-104568437D01*
X166213859Y-104548744D01*
X166265729Y-104495955D01*
X166332307Y-104467331D01*
X166415401Y-104461971D01*
X166421705Y-104462432D01*
G37*
%TD*%
M02*
