M48
; DRILL file {KiCad (6.0.7-1)-1} date Sunday, 04 September 2022 at 07:21:50 pm
; FORMAT={-:-/ absolute / metric / decimal}
; #@! TF.CreationDate,2022-09-04T19:21:50+10:00
; #@! TF.GenerationSoftware,Kicad,Pcbnew,(6.0.7-1)-1
; #@! TF.FileFunction,NonPlated,1,2,NPTH
FMAT,2
METRIC
; #@! TA.AperFunction,NonPlated,NPTH,ComponentDrill
T1C0.900
; #@! TA.AperFunction,NonPlated,NPTH,ComponentDrill
T2C1.702
; #@! TA.AperFunction,NonPlated,NPTH,ComponentDrill
T3C3.000
; #@! TA.AperFunction,NonPlated,NPTH,ComponentDrill
T4C3.429
%
G90
G05
T1
X241.061Y-102.341
X241.061Y-102.341
X241.061Y-105.341
X241.061Y-105.341
T2
X133.561Y-71.591
X133.561Y-71.591
X133.561Y-105.591
X133.561Y-105.591
X133.561Y-88.591
X133.561Y-88.591
X144.561Y-71.591
X144.561Y-71.591
X144.561Y-105.591
X144.561Y-105.591
X144.561Y-88.591
X144.561Y-88.591
X151.561Y-59.691
X151.561Y-59.691
X151.561Y-93.691
X151.561Y-93.691
X151.561Y-76.691
X151.561Y-76.691
X162.561Y-59.691
X162.561Y-59.691
X162.561Y-93.691
X162.561Y-93.691
X162.561Y-76.691
X162.561Y-76.691
X169.561Y-71.591
X169.561Y-71.591
X169.561Y-88.591
X169.561Y-88.591
X169.561Y-54.591
X169.561Y-54.591
X180.561Y-71.591
X180.561Y-71.591
X180.561Y-88.591
X180.561Y-88.591
X180.561Y-54.591
X180.561Y-54.591
X187.561Y-60.541
X187.561Y-60.541
X187.561Y-77.541
X187.561Y-77.541
X187.561Y-94.541
X187.561Y-94.541
X187.582Y-118.712
X187.582Y-118.712
X198.541Y-119.671
X198.541Y-119.671
X198.561Y-60.541
X198.561Y-60.541
X198.561Y-77.541
X198.561Y-77.541
X198.561Y-94.541
X198.561Y-94.541
X205.561Y-80.091
X205.561Y-80.091
X205.561Y-63.091
X205.561Y-63.091
X205.561Y-97.091
X205.561Y-97.091
X212.031Y-122.108
X212.031Y-122.108
X216.561Y-80.091
X216.561Y-80.091
X216.561Y-63.091
X216.561Y-63.091
X216.561Y-97.091
X216.561Y-97.091
X222.367Y-125.87
X222.367Y-125.87
X234.359Y-133.464
X234.359Y-133.464
X240.668Y-124.453
X240.668Y-124.453
T3
X134.061Y-67.841
X134.061Y-101.841
X134.061Y-84.841
X139.061Y-65.641
X139.061Y-65.641
X139.061Y-99.641
X139.061Y-99.641
X139.061Y-82.641
X139.061Y-82.641
X144.061Y-67.841
X144.061Y-101.841
X144.061Y-84.841
X152.061Y-55.941
X152.061Y-89.941
X152.061Y-72.941
X157.061Y-53.741
X157.061Y-53.741
X157.061Y-87.741
X157.061Y-87.741
X157.061Y-70.741
X157.061Y-70.741
X162.061Y-55.941
X162.061Y-89.941
X162.061Y-72.941
X170.061Y-67.841
X170.061Y-84.841
X170.061Y-50.841
X175.061Y-65.641
X175.061Y-65.641
X175.061Y-82.641
X175.061Y-82.641
X175.061Y-48.641
X175.061Y-48.641
X180.061Y-67.841
X180.061Y-84.841
X180.061Y-50.841
X188.061Y-56.791
X188.061Y-73.791
X188.061Y-90.791
X188.407Y-115.02
X193.061Y-54.591
X193.061Y-54.591
X193.061Y-71.591
X193.061Y-71.591
X193.061Y-88.591
X193.061Y-88.591
X193.58Y-113.264
X193.58Y-113.264
X198.061Y-56.791
X198.061Y-73.791
X198.061Y-90.791
X198.369Y-115.891
X206.061Y-76.341
X206.061Y-59.341
X206.061Y-93.341
X211.061Y-74.141
X211.061Y-74.141
X211.061Y-57.141
X211.061Y-57.141
X211.061Y-91.141
X211.061Y-91.141
X213.783Y-118.755
X216.061Y-76.341
X216.061Y-59.341
X216.061Y-93.341
X219.234Y-118.398
X219.234Y-118.398
X223.18Y-122.175
X231.574Y-130.903
X232.639Y-125.546
X232.639Y-125.546
X237.309Y-122.712
T4
X139.061Y-71.591
X139.061Y-71.591
X139.061Y-105.591
X139.061Y-105.591
X139.061Y-88.591
X139.061Y-88.591
X157.061Y-59.691
X157.061Y-59.691
X157.061Y-93.691
X157.061Y-93.691
X157.061Y-76.691
X157.061Y-76.691
X175.061Y-71.591
X175.061Y-71.591
X175.061Y-88.591
X175.061Y-88.591
X175.061Y-54.591
X175.061Y-54.591
X193.061Y-60.541
X193.061Y-60.541
X193.061Y-77.541
X193.061Y-77.541
X193.061Y-119.191
X193.061Y-119.191
X193.061Y-94.541
X193.061Y-94.541
X211.061Y-80.091
X211.061Y-80.091
X211.061Y-63.091
X211.061Y-63.091
X211.061Y-97.091
X211.061Y-97.091
X217.199Y-123.989
X217.199Y-123.989
X237.513Y-128.958
X237.513Y-128.958
T0
M30
