%TF.GenerationSoftware,KiCad,Pcbnew,(6.0.7-1)-1*%
%TF.CreationDate,2022-09-04T19:21:53+10:00*%
%TF.ProjectId,Dusk 36,4475736b-2033-4362-9e6b-696361645f70,v1.0.0*%
%TF.SameCoordinates,Original*%
%TF.FileFunction,Profile,NP*%
%FSLAX46Y46*%
G04 Gerber Fmt 4.6, Leading zero omitted, Abs format (unit mm)*
G04 Created by KiCad (PCBNEW (6.0.7-1)-1) date 2022-09-04 19:21:53*
%MOMM*%
%LPD*%
G01*
G04 APERTURE LIST*
%TA.AperFunction,Profile*%
%ADD10C,0.150000*%
%TD*%
G04 APERTURE END LIST*
D10*
X185061538Y-50041164D02*
G75*
G03*
X186061446Y-51041162I1000062J64D01*
G01*
X149249977Y-115171886D02*
G75*
G03*
X148856363Y-115091172I-393677J-919714D01*
G01*
X252792994Y-121956058D02*
X243987860Y-115790641D01*
X165061441Y-46091171D02*
X165061438Y-49191171D01*
X177948024Y-127405202D02*
X205279373Y-129796390D01*
X177641562Y-127328294D02*
X149249973Y-115171896D01*
X166061445Y-45091141D02*
G75*
G03*
X165061441Y-46091171I-45J-999959D01*
G01*
X164061445Y-50191175D02*
X148061444Y-50191174D01*
X243561433Y-64091166D02*
G75*
G03*
X242561442Y-63091167I-1000033J-34D01*
G01*
X148061444Y-50191143D02*
G75*
G03*
X147061443Y-51191167I56J-1000057D01*
G01*
X177641563Y-127328292D02*
G75*
G03*
X177948024Y-127405202I393537J919092D01*
G01*
X146061439Y-62091145D02*
G75*
G03*
X147061445Y-61091176I61J999945D01*
G01*
X203061530Y-52041172D02*
G75*
G03*
X202061444Y-51041170I-1000130J-128D01*
G01*
X224061433Y-99091174D02*
X226061436Y-99091173D01*
X236159305Y-145711441D02*
G75*
G03*
X237552018Y-145465885I573595J819041D01*
G01*
X242561442Y-63091167D02*
X222061445Y-63091171D01*
X221061527Y-54591171D02*
G75*
G03*
X220061438Y-53591173I-1000127J-129D01*
G01*
X146061439Y-62091175D02*
X130061444Y-62091175D01*
X185061533Y-46091167D02*
G75*
G03*
X184061449Y-45091167I-999933J67D01*
G01*
X226061445Y-101091227D02*
G75*
G03*
X226061436Y-99091173I-45J1000027D01*
G01*
X129061444Y-114091170D02*
X129061451Y-63091179D01*
X203061442Y-52591173D02*
X203061443Y-52041172D01*
X205534232Y-129852882D02*
G75*
G03*
X205279368Y-129796381I-342132J-940218D01*
G01*
X202061444Y-51041170D02*
X186061446Y-51041162D01*
X185061450Y-50041164D02*
X185061447Y-46091167D01*
X205534231Y-129852884D02*
X222021737Y-135853849D01*
X222253283Y-135974398D02*
X236159292Y-145711459D01*
X184061449Y-45091167D02*
X166061445Y-45091165D01*
X130061444Y-62091151D02*
G75*
G03*
X129061451Y-63091179I-44J-999949D01*
G01*
X222253289Y-135974389D02*
G75*
G03*
X222021740Y-135853854I-573389J-818811D01*
G01*
X221061429Y-62091184D02*
G75*
G03*
X222061445Y-63091171I1000171J184D01*
G01*
X243561441Y-114971503D02*
X243561435Y-64091166D01*
X147061443Y-51191167D02*
X147061445Y-61091176D01*
X237552016Y-145465893D02*
X253038579Y-123348797D01*
X220061438Y-53591173D02*
X204061443Y-53591175D01*
X130061444Y-115091164D02*
X148856363Y-115091172D01*
X164061445Y-50191138D02*
G75*
G03*
X165061438Y-49191171I55J999938D01*
G01*
X203061425Y-52591173D02*
G75*
G03*
X204061443Y-53591175I999875J-127D01*
G01*
X224061433Y-99091234D02*
G75*
G03*
X224061431Y-101091166I-33J-999966D01*
G01*
X243561433Y-114971503D02*
G75*
G03*
X243987860Y-115790641I1000167J103D01*
G01*
X221061433Y-62091184D02*
X221061435Y-54591171D01*
X253038593Y-123348807D02*
G75*
G03*
X252792994Y-121956058I-818993J573607D01*
G01*
X224061431Y-101091166D02*
X226061445Y-101091162D01*
X129061536Y-114091170D02*
G75*
G03*
X130061444Y-115091164I999964J-30D01*
G01*
M02*
