%TF.GenerationSoftware,KiCad,Pcbnew,(6.0.7-1)-1*%
%TF.CreationDate,2022-09-04T19:21:53+10:00*%
%TF.ProjectId,Dusk 36,4475736b-2033-4362-9e6b-696361645f70,v1.0.0*%
%TF.SameCoordinates,Original*%
%TF.FileFunction,Soldermask,Top*%
%TF.FilePolarity,Negative*%
%FSLAX46Y46*%
G04 Gerber Fmt 4.6, Leading zero omitted, Abs format (unit mm)*
G04 Created by KiCad (PCBNEW (6.0.7-1)-1) date 2022-09-04 19:21:53*
%MOMM*%
%LPD*%
G01*
G04 APERTURE LIST*
G04 Aperture macros list*
%AMRoundRect*
0 Rectangle with rounded corners*
0 $1 Rounding radius*
0 $2 $3 $4 $5 $6 $7 $8 $9 X,Y pos of 4 corners*
0 Add a 4 corners polygon primitive as box body*
4,1,4,$2,$3,$4,$5,$6,$7,$8,$9,$2,$3,0*
0 Add four circle primitives for the rounded corners*
1,1,$1+$1,$2,$3*
1,1,$1+$1,$4,$5*
1,1,$1+$1,$6,$7*
1,1,$1+$1,$8,$9*
0 Add four rect primitives between the rounded corners*
20,1,$1+$1,$2,$3,$4,$5,0*
20,1,$1+$1,$4,$5,$6,$7,0*
20,1,$1+$1,$6,$7,$8,$9,0*
20,1,$1+$1,$8,$9,$2,$3,0*%
G04 Aperture macros list end*
%ADD10RoundRect,0.050000X-0.450000X0.450000X-0.450000X-0.450000X0.450000X-0.450000X0.450000X0.450000X0*%
%ADD11C,1.000000*%
%ADD12RoundRect,0.050000X-0.625000X0.450000X-0.625000X-0.450000X0.625000X-0.450000X0.625000X0.450000X0*%
%ADD13C,2.100000*%
%ADD14C,1.801800*%
%ADD15C,3.529000*%
%ADD16C,2.132000*%
%ADD17C,3.100000*%
%ADD18RoundRect,0.050000X-1.300000X-1.300000X1.300000X-1.300000X1.300000X1.300000X-1.300000X1.300000X0*%
%ADD19RoundRect,0.050000X-0.450000X-0.600000X0.450000X-0.600000X0.450000X0.600000X-0.450000X0.600000X0*%
%ADD20RoundRect,0.050000X-0.500581X-0.558497X0.395994X-0.636937X0.500581X0.558497X-0.395994X0.636937X0*%
%ADD21RoundRect,0.050000X-1.666227X-0.776974X0.776974X-1.666227X1.666227X0.776974X-0.776974X1.666227X0*%
%ADD22RoundRect,0.050000X0.233382X-0.712764X0.749601X0.024473X-0.233382X0.712764X-0.749601X-0.024473X0*%
%ADD23RoundRect,0.050000X-0.750000X-0.750000X0.750000X-0.750000X0.750000X0.750000X-0.750000X0.750000X0*%
%ADD24RoundRect,0.050000X-0.876300X0.876300X-0.876300X-0.876300X0.876300X-0.876300X0.876300X0.876300X0*%
%ADD25C,1.852600*%
%ADD26RoundRect,0.050000X0.319248X-1.810547X1.810547X0.319248X-0.319248X1.810547X-1.810547X-0.319248X0*%
%ADD27RoundRect,0.050000X-1.408356X-1.181751X1.181751X-1.408356X1.408356X1.181751X-1.181751X1.408356X0*%
%ADD28RoundRect,0.050000X-0.628074X-0.409907X0.217650X-0.717725X0.628074X0.409907X-0.217650X0.717725X0*%
G04 APERTURE END LIST*
%TO.C,G\u002A\u002A\u002A*%
G36*
X167332051Y-118157504D02*
G01*
X167394042Y-118111859D01*
X167479943Y-118081088D01*
X167585615Y-118065810D01*
X167701081Y-118057896D01*
X167701081Y-118011135D01*
X167693040Y-117967303D01*
X167667250Y-117939813D01*
X167621207Y-117927538D01*
X167552411Y-117929348D01*
X167526674Y-117932509D01*
X167474357Y-117940628D01*
X167428028Y-117949213D01*
X167409890Y-117953316D01*
X167387146Y-117956860D01*
X167372117Y-117948846D01*
X167359079Y-117923403D01*
X167346978Y-117888791D01*
X167334257Y-117846649D01*
X167327749Y-117817166D01*
X167327959Y-117808703D01*
X167351631Y-117797427D01*
X167396451Y-117785550D01*
X167454719Y-117774408D01*
X167518734Y-117765336D01*
X167580797Y-117759669D01*
X167617844Y-117758442D01*
X167709237Y-117763537D01*
X167778188Y-117779877D01*
X167829507Y-117809048D01*
X167856941Y-117837218D01*
X167870925Y-117857915D01*
X167881815Y-117882704D01*
X167890076Y-117915457D01*
X167896174Y-117960047D01*
X167900576Y-118020346D01*
X167903746Y-118100226D01*
X167906151Y-118203559D01*
X167907024Y-118253576D01*
X167911226Y-118510178D01*
X167834314Y-118510178D01*
X167789033Y-118508921D01*
X167763910Y-118502463D01*
X167750212Y-118486771D01*
X167742646Y-118467848D01*
X167727890Y-118425518D01*
X167667502Y-118466504D01*
X167588580Y-118504159D01*
X167503395Y-118517005D01*
X167444841Y-118510374D01*
X167371949Y-118480945D01*
X167320156Y-118431915D01*
X167290018Y-118364032D01*
X167281843Y-118291888D01*
X167286870Y-118262356D01*
X167492883Y-118262356D01*
X167495855Y-118297441D01*
X167525158Y-118333086D01*
X167566354Y-118349915D01*
X167617737Y-118341064D01*
X167642221Y-118330007D01*
X167680508Y-118301540D01*
X167698190Y-118262048D01*
X167701081Y-118225305D01*
X167699545Y-118204679D01*
X167690298Y-118194485D01*
X167666381Y-118192177D01*
X167620835Y-118195210D01*
X167619169Y-118195348D01*
X167556883Y-118207875D01*
X167514007Y-118231356D01*
X167492883Y-118262356D01*
X167286870Y-118262356D01*
X167294481Y-118217640D01*
X167332051Y-118157504D01*
G37*
G36*
X166490007Y-117774259D02*
G01*
X166527619Y-117777852D01*
X166544519Y-117782943D01*
X166544824Y-117783741D01*
X166539575Y-117799470D01*
X166524643Y-117838297D01*
X166501469Y-117896630D01*
X166471492Y-117970879D01*
X166436152Y-118057452D01*
X166397044Y-118152381D01*
X166249005Y-118510178D01*
X166116657Y-118510178D01*
X165961971Y-118150156D01*
X165921197Y-118054930D01*
X165884450Y-117968483D01*
X165853207Y-117894341D01*
X165828948Y-117836034D01*
X165813150Y-117797089D01*
X165807291Y-117781034D01*
X165807285Y-117780931D01*
X165820591Y-117777163D01*
X165855988Y-117775222D01*
X165906697Y-117775395D01*
X165924574Y-117775928D01*
X166041863Y-117780127D01*
X166112508Y-117981205D01*
X166137724Y-118054753D01*
X166159126Y-118120552D01*
X166174937Y-118172874D01*
X166183380Y-118205993D01*
X166184294Y-118212509D01*
X166186792Y-118230577D01*
X166189813Y-118228277D01*
X166195463Y-118210156D01*
X166208228Y-118169489D01*
X166226527Y-118111304D01*
X166248779Y-118040630D01*
X166263673Y-117993360D01*
X166333157Y-117772899D01*
X166438860Y-117772899D01*
X166490007Y-117774259D01*
G37*
G36*
X169059214Y-117469101D02*
G01*
X169067396Y-117471207D01*
X169114129Y-117496199D01*
X169141429Y-117535371D01*
X169147197Y-117581198D01*
X169129335Y-117626158D01*
X169115088Y-117642227D01*
X169072637Y-117665145D01*
X169019198Y-117672508D01*
X168966840Y-117664282D01*
X168929880Y-117642790D01*
X168906810Y-117602472D01*
X168900967Y-117565520D01*
X168912991Y-117514848D01*
X168946219Y-117480275D01*
X168996382Y-117464220D01*
X169059214Y-117469101D01*
G37*
G36*
X169132270Y-118510178D02*
G01*
X168929880Y-118510178D01*
X168929880Y-117772899D01*
X169132270Y-117772899D01*
X169132270Y-118510178D01*
G37*
G36*
X163259543Y-118023848D02*
G01*
X163308661Y-117939438D01*
X163370640Y-117868609D01*
X163443183Y-117817192D01*
X163463338Y-117807787D01*
X163520704Y-117792451D01*
X163585379Y-117788022D01*
X163645886Y-117794340D01*
X163690292Y-117810945D01*
X163717697Y-117826130D01*
X163736234Y-117823790D01*
X163752362Y-117810945D01*
X163784136Y-117794989D01*
X163826990Y-117787446D01*
X163831777Y-117787355D01*
X163866485Y-117789322D01*
X163879489Y-117798568D01*
X163877960Y-117819882D01*
X163863825Y-117889403D01*
X163849839Y-117967495D01*
X163836982Y-118047496D01*
X163826234Y-118122744D01*
X163818574Y-118186576D01*
X163814984Y-118232330D01*
X163815089Y-118247268D01*
X163820844Y-118283035D01*
X163835248Y-118299213D01*
X163863661Y-118304877D01*
X163917442Y-118296688D01*
X163964877Y-118263796D01*
X164003324Y-118210174D01*
X164030140Y-118139795D01*
X164042684Y-118056631D01*
X164043279Y-118034792D01*
X164038364Y-117944213D01*
X164020695Y-117872175D01*
X163986944Y-117809885D01*
X163935663Y-117750432D01*
X163885042Y-117704568D01*
X163837532Y-117675116D01*
X163780378Y-117654318D01*
X163775204Y-117652851D01*
X163644331Y-117629204D01*
X163519855Y-117632036D01*
X163404339Y-117660267D01*
X163300345Y-117712817D01*
X163210438Y-117788605D01*
X163137181Y-117886550D01*
X163113005Y-117931920D01*
X163090595Y-117981895D01*
X163077110Y-118024012D01*
X163070365Y-118069163D01*
X163068176Y-118128237D01*
X163068085Y-118155995D01*
X163069614Y-118225979D01*
X163075243Y-118277599D01*
X163086831Y-118321316D01*
X163105354Y-118365701D01*
X163162800Y-118459934D01*
X163238604Y-118532915D01*
X163320686Y-118581142D01*
X163364590Y-118599599D01*
X163406051Y-118610847D01*
X163454817Y-118616563D01*
X163520634Y-118618425D01*
X163537620Y-118618483D01*
X163603723Y-118617275D01*
X163664079Y-118613943D01*
X163709209Y-118609098D01*
X163721867Y-118606626D01*
X163754938Y-118600971D01*
X163772488Y-118610453D01*
X163784359Y-118635539D01*
X163803597Y-118690883D01*
X163809093Y-118726339D01*
X163799534Y-118748129D01*
X163773603Y-118762472D01*
X163756315Y-118768133D01*
X163694479Y-118780926D01*
X163615489Y-118789327D01*
X163530848Y-118792790D01*
X163452058Y-118790772D01*
X163401455Y-118784933D01*
X163267158Y-118748099D01*
X163151275Y-118689585D01*
X163084982Y-118639000D01*
X163001529Y-118548726D01*
X162941615Y-118446479D01*
X162904124Y-118329516D01*
X162887945Y-118195097D01*
X162887080Y-118151817D01*
X162900384Y-118011804D01*
X162938657Y-117883010D01*
X162999440Y-117767509D01*
X163080276Y-117667373D01*
X163178705Y-117584672D01*
X163292269Y-117521480D01*
X163418509Y-117479869D01*
X163554966Y-117461910D01*
X163696831Y-117469340D01*
X163813975Y-117495062D01*
X163922372Y-117536345D01*
X164016726Y-117590313D01*
X164091738Y-117654088D01*
X164131251Y-117705201D01*
X164182177Y-117811858D01*
X164212233Y-117927806D01*
X164220395Y-118045465D01*
X164205641Y-118157254D01*
X164196500Y-118188793D01*
X164150960Y-118281996D01*
X164083552Y-118360366D01*
X163998950Y-118420533D01*
X163901831Y-118459127D01*
X163802619Y-118472733D01*
X163749113Y-118471641D01*
X163714124Y-118464614D01*
X163687433Y-118448925D01*
X163676125Y-118438990D01*
X163650528Y-118405224D01*
X163638882Y-118370671D01*
X163638816Y-118368480D01*
X163637567Y-118350063D01*
X163630545Y-118345926D01*
X163612832Y-118357867D01*
X163579515Y-118387683D01*
X163575072Y-118391775D01*
X163504032Y-118443989D01*
X163433022Y-118471979D01*
X163365718Y-118475868D01*
X163305799Y-118455776D01*
X163256942Y-118411826D01*
X163237649Y-118380621D01*
X163212340Y-118300224D01*
X163209084Y-118210074D01*
X163212742Y-118189218D01*
X163403363Y-118189218D01*
X163408383Y-118253154D01*
X163428455Y-118293244D01*
X163461228Y-118308731D01*
X163504351Y-118298859D01*
X163555471Y-118262870D01*
X163574480Y-118244316D01*
X163609429Y-118204269D01*
X163631026Y-118166991D01*
X163645100Y-118120365D01*
X163652476Y-118082192D01*
X163660893Y-118029301D01*
X163662878Y-117997254D01*
X163657907Y-117978592D01*
X163645456Y-117965854D01*
X163644244Y-117964957D01*
X163599788Y-117948016D01*
X163551949Y-117955239D01*
X163504783Y-117982851D01*
X163462346Y-118027079D01*
X163428691Y-118084145D01*
X163407874Y-118150276D01*
X163403363Y-118189218D01*
X163212742Y-118189218D01*
X163225585Y-118116004D01*
X163259543Y-118023848D01*
G37*
G36*
X165162326Y-118187765D02*
G01*
X165183086Y-118160454D01*
X165196980Y-118147355D01*
X165257824Y-118108462D01*
X165338005Y-118079883D01*
X165428997Y-118064213D01*
X165477410Y-118062028D01*
X165524515Y-118061337D01*
X165549625Y-118057037D01*
X165559654Y-118045791D01*
X165561521Y-118024259D01*
X165561525Y-118021421D01*
X165554096Y-117972605D01*
X165529478Y-117942778D01*
X165484173Y-117929189D01*
X165442502Y-117927747D01*
X165383627Y-117932061D01*
X165325162Y-117940862D01*
X165303224Y-117945860D01*
X165263468Y-117954270D01*
X165235690Y-117955988D01*
X165230676Y-117954624D01*
X165219639Y-117937172D01*
X165206967Y-117903268D01*
X165195628Y-117863476D01*
X165188591Y-117828360D01*
X165188825Y-117808486D01*
X165189395Y-117807711D01*
X165215307Y-117794736D01*
X165262660Y-117782080D01*
X165323998Y-117771023D01*
X165391866Y-117762849D01*
X165458808Y-117758838D01*
X165474786Y-117758636D01*
X165564930Y-117763106D01*
X165632483Y-117778111D01*
X165682481Y-117805664D01*
X165719962Y-117847781D01*
X165727282Y-117859637D01*
X165737907Y-117880359D01*
X165745650Y-117903659D01*
X165750971Y-117934308D01*
X165754327Y-117977076D01*
X165756176Y-118036734D01*
X165756977Y-118118053D01*
X165757131Y-118170451D01*
X165757927Y-118257104D01*
X165759858Y-118336140D01*
X165762696Y-118402022D01*
X165766211Y-118449211D01*
X165769541Y-118470423D01*
X165781506Y-118510178D01*
X165694349Y-118510178D01*
X165645962Y-118509433D01*
X165618922Y-118504934D01*
X165605663Y-118493289D01*
X165598621Y-118471105D01*
X165597666Y-118466809D01*
X165588771Y-118434205D01*
X165577223Y-118426442D01*
X165555673Y-118441768D01*
X165542850Y-118453740D01*
X165481173Y-118493586D01*
X165404693Y-118514044D01*
X165321547Y-118513323D01*
X165294805Y-118508314D01*
X165224910Y-118480080D01*
X165176740Y-118432979D01*
X165150143Y-118366774D01*
X165144966Y-118281226D01*
X165145410Y-118274408D01*
X165146783Y-118262107D01*
X165349380Y-118262107D01*
X165349573Y-118296343D01*
X165373013Y-118324683D01*
X165420179Y-118348191D01*
X165469330Y-118343257D01*
X165517046Y-118313731D01*
X165551969Y-118273179D01*
X165561525Y-118234220D01*
X165559491Y-118208235D01*
X165548139Y-118195993D01*
X165519593Y-118192346D01*
X165497151Y-118192136D01*
X165425975Y-118199811D01*
X165376375Y-118222164D01*
X165350486Y-118258183D01*
X165349380Y-118262107D01*
X165146783Y-118262107D01*
X165151247Y-118222104D01*
X165162326Y-118187765D01*
G37*
G36*
X168874642Y-114271366D02*
G01*
X168929094Y-114320289D01*
X168966720Y-114384658D01*
X168983239Y-114455479D01*
X168981494Y-114495763D01*
X168956870Y-114572337D01*
X168911942Y-114635560D01*
X168857598Y-114675536D01*
X168849881Y-114678806D01*
X168839493Y-114681786D01*
X168825118Y-114684491D01*
X168805438Y-114686937D01*
X168779136Y-114689138D01*
X168744896Y-114691109D01*
X168701400Y-114692865D01*
X168647331Y-114694420D01*
X168581373Y-114695789D01*
X168502207Y-114696988D01*
X168408518Y-114698031D01*
X168298989Y-114698933D01*
X168172301Y-114699708D01*
X168027139Y-114700372D01*
X167862184Y-114700939D01*
X167676121Y-114701424D01*
X167467633Y-114701843D01*
X167235401Y-114702209D01*
X166978109Y-114702538D01*
X166694441Y-114702844D01*
X166407228Y-114703120D01*
X166145312Y-114703293D01*
X165890804Y-114703325D01*
X165645245Y-114703223D01*
X165410179Y-114702992D01*
X165187149Y-114702638D01*
X164977699Y-114702167D01*
X164783371Y-114701585D01*
X164605709Y-114700898D01*
X164446256Y-114700112D01*
X164306555Y-114699233D01*
X164188150Y-114698267D01*
X164092583Y-114697219D01*
X164021399Y-114696095D01*
X163976139Y-114694902D01*
X163958633Y-114693728D01*
X163884092Y-114662840D01*
X163829215Y-114611958D01*
X163796091Y-114544043D01*
X163786809Y-114462061D01*
X163787433Y-114450927D01*
X163803329Y-114373917D01*
X163840336Y-114314255D01*
X163900543Y-114267207D01*
X163907179Y-114263518D01*
X163914859Y-114260156D01*
X163924897Y-114257107D01*
X163938603Y-114254356D01*
X163957290Y-114251887D01*
X163982271Y-114249685D01*
X164014856Y-114247734D01*
X164056359Y-114246020D01*
X164108091Y-114244527D01*
X164171364Y-114243240D01*
X164247491Y-114242143D01*
X164337784Y-114241222D01*
X164443554Y-114240461D01*
X164566114Y-114239844D01*
X164706776Y-114239358D01*
X164866852Y-114238985D01*
X165047654Y-114238711D01*
X165250494Y-114238522D01*
X165476684Y-114238400D01*
X165727536Y-114238332D01*
X166004363Y-114238302D01*
X166308476Y-114238294D01*
X168821456Y-114238294D01*
X168874642Y-114271366D01*
G37*
G36*
X164375120Y-118049790D02*
G01*
X164399354Y-117954252D01*
X164430030Y-117889371D01*
X164483148Y-117824975D01*
X164552079Y-117781909D01*
X164639243Y-117759034D01*
X164717503Y-117754442D01*
X164824245Y-117755130D01*
X164824245Y-117483769D01*
X165026636Y-117483769D01*
X165026701Y-117834338D01*
X165027131Y-117943852D01*
X165028296Y-118054384D01*
X165030073Y-118159160D01*
X165032336Y-118251407D01*
X165034961Y-118324352D01*
X165036139Y-118347543D01*
X165045510Y-118510178D01*
X164970657Y-118510178D01*
X164926577Y-118509087D01*
X164903162Y-118502916D01*
X164892173Y-118487314D01*
X164886968Y-118465992D01*
X164878130Y-118421805D01*
X164840345Y-118457844D01*
X164775444Y-118500774D01*
X164697216Y-118522468D01*
X164612887Y-118522022D01*
X164529686Y-118498532D01*
X164526458Y-118497089D01*
X164482054Y-118470427D01*
X164445030Y-118437459D01*
X164438111Y-118428738D01*
X164398614Y-118350482D01*
X164374870Y-118255905D01*
X164368011Y-118166237D01*
X164579262Y-118166237D01*
X164587870Y-118233061D01*
X164607217Y-118289807D01*
X164637393Y-118329056D01*
X164645799Y-118334784D01*
X164698894Y-118350293D01*
X164752740Y-118340261D01*
X164788761Y-118315673D01*
X164804097Y-118298609D01*
X164814238Y-118279954D01*
X164820252Y-118253641D01*
X164823208Y-118213604D01*
X164824174Y-118153776D01*
X164824245Y-118114257D01*
X164823961Y-118042820D01*
X164822464Y-117995056D01*
X164818790Y-117965724D01*
X164811974Y-117949586D01*
X164801050Y-117941402D01*
X164791788Y-117938023D01*
X164730264Y-117929135D01*
X164670458Y-117938118D01*
X164650448Y-117946547D01*
X164616987Y-117979491D01*
X164593909Y-118032033D01*
X164581304Y-118096755D01*
X164579262Y-118166237D01*
X164368011Y-118166237D01*
X164366999Y-118153008D01*
X164375120Y-118049790D01*
G37*
G36*
X169299903Y-117934688D02*
G01*
X169340509Y-117864011D01*
X169343832Y-117859965D01*
X169408077Y-117804765D01*
X169488475Y-117767628D01*
X169577974Y-117749365D01*
X169669525Y-117750789D01*
X169756076Y-117772712D01*
X169816890Y-117805490D01*
X169865328Y-117857338D01*
X169897367Y-117930804D01*
X169911852Y-118022939D01*
X169912602Y-118050003D01*
X169912868Y-118102990D01*
X169910512Y-118140887D01*
X169901409Y-118166213D01*
X169881433Y-118181486D01*
X169846457Y-118189226D01*
X169792357Y-118191951D01*
X169715007Y-118192180D01*
X169679794Y-118192136D01*
X169464218Y-118192136D01*
X169474009Y-118231891D01*
X169499049Y-118293881D01*
X169536915Y-118334795D01*
X169564124Y-118347366D01*
X169622199Y-118356332D01*
X169684339Y-118355418D01*
X169739026Y-118345484D01*
X169769012Y-118332085D01*
X169799190Y-118314398D01*
X169819288Y-118307788D01*
X169831794Y-118319307D01*
X169851329Y-118347708D01*
X169872514Y-118383757D01*
X169889973Y-118418222D01*
X169898326Y-118441867D01*
X169898463Y-118443730D01*
X169886386Y-118451728D01*
X169855136Y-118467193D01*
X169822566Y-118481888D01*
X169752878Y-118503908D01*
X169670326Y-118517403D01*
X169585344Y-118521725D01*
X169508368Y-118516226D01*
X169459784Y-118504402D01*
X169414133Y-118482498D01*
X169374626Y-118455719D01*
X169370161Y-118451750D01*
X169322620Y-118389042D01*
X169289002Y-118307736D01*
X169269614Y-118214739D01*
X169264763Y-118116960D01*
X169272841Y-118039642D01*
X169479207Y-118039642D01*
X169493803Y-118053854D01*
X169529816Y-118060335D01*
X169590717Y-118062010D01*
X169602105Y-118062028D01*
X169661631Y-118061648D01*
X169697963Y-118059447D01*
X169716820Y-118053835D01*
X169723920Y-118043220D01*
X169724985Y-118027836D01*
X169712158Y-117979139D01*
X169679024Y-117940167D01*
X169633606Y-117919096D01*
X169616695Y-117917463D01*
X169562858Y-117922022D01*
X169527825Y-117938769D01*
X169502499Y-117972306D01*
X169500375Y-117976323D01*
X169482555Y-118014773D01*
X169479207Y-118039642D01*
X169272841Y-118039642D01*
X169274757Y-118021307D01*
X169299903Y-117934688D01*
G37*
G36*
X168264883Y-117902498D02*
G01*
X168264999Y-118024063D01*
X168265471Y-118119890D01*
X168266487Y-118193157D01*
X168268233Y-118247037D01*
X168270897Y-118284707D01*
X168274664Y-118309343D01*
X168279723Y-118324119D01*
X168286260Y-118332212D01*
X168290335Y-118334849D01*
X168323419Y-118342524D01*
X168355390Y-118340900D01*
X168384477Y-118339247D01*
X168394634Y-118352533D01*
X168395150Y-118360314D01*
X168397582Y-118392622D01*
X168403308Y-118435571D01*
X168404083Y-118440360D01*
X168407974Y-118474804D01*
X168399929Y-118492833D01*
X168373164Y-118504319D01*
X168356940Y-118508947D01*
X168308095Y-118518250D01*
X168249184Y-118523839D01*
X168224015Y-118524554D01*
X168174329Y-118522070D01*
X168140839Y-118511543D01*
X168111060Y-118488558D01*
X168104750Y-118482377D01*
X168062492Y-118440120D01*
X168062492Y-117483769D01*
X168264883Y-117483769D01*
X168264883Y-117902498D01*
G37*
G36*
X166782843Y-112344500D02*
G01*
X167137840Y-112344512D01*
X167466059Y-112344543D01*
X167768565Y-112344600D01*
X168046425Y-112344693D01*
X168300708Y-112344829D01*
X168532478Y-112345017D01*
X168742804Y-112345266D01*
X168932752Y-112345583D01*
X169103389Y-112345976D01*
X169255781Y-112346456D01*
X169390997Y-112347029D01*
X169510102Y-112347704D01*
X169614164Y-112348490D01*
X169704249Y-112349394D01*
X169781424Y-112350426D01*
X169846757Y-112351593D01*
X169901314Y-112352905D01*
X169946162Y-112354369D01*
X169982367Y-112355993D01*
X170010997Y-112357787D01*
X170033119Y-112359758D01*
X170049799Y-112361914D01*
X170062105Y-112364265D01*
X170071103Y-112366819D01*
X170077860Y-112369584D01*
X170083443Y-112372567D01*
X170084886Y-112373411D01*
X170147258Y-112423439D01*
X170184740Y-112486878D01*
X170198433Y-112550490D01*
X170192852Y-112631648D01*
X170161716Y-112703729D01*
X170107630Y-112761368D01*
X170090460Y-112773121D01*
X170035799Y-112807105D01*
X166428912Y-112809310D01*
X166107453Y-112809465D01*
X165793330Y-112809534D01*
X165487789Y-112809520D01*
X165192075Y-112809426D01*
X164907433Y-112809254D01*
X164635108Y-112809008D01*
X164376345Y-112808690D01*
X164132390Y-112808304D01*
X163904488Y-112807851D01*
X163693884Y-112807335D01*
X163501822Y-112806760D01*
X163329549Y-112806126D01*
X163178310Y-112805439D01*
X163049348Y-112804699D01*
X162943911Y-112803911D01*
X162863242Y-112803076D01*
X162808588Y-112802199D01*
X162781193Y-112801281D01*
X162778354Y-112800971D01*
X162703788Y-112769382D01*
X162647202Y-112717405D01*
X162611707Y-112649449D01*
X162600415Y-112569925D01*
X162601566Y-112550490D01*
X162620599Y-112473566D01*
X162662654Y-112412964D01*
X162715113Y-112373411D01*
X162720562Y-112370366D01*
X162726898Y-112367543D01*
X162735186Y-112364934D01*
X162746494Y-112362529D01*
X162761890Y-112360321D01*
X162782439Y-112358300D01*
X162809209Y-112356460D01*
X162843266Y-112354790D01*
X162885678Y-112353284D01*
X162937511Y-112351933D01*
X162999833Y-112350727D01*
X163073709Y-112349660D01*
X163160208Y-112348722D01*
X163260395Y-112347905D01*
X163375338Y-112347201D01*
X163506104Y-112346601D01*
X163653759Y-112346097D01*
X163819370Y-112345681D01*
X164004005Y-112345344D01*
X164208730Y-112345078D01*
X164434612Y-112344874D01*
X164682718Y-112344725D01*
X164954114Y-112344622D01*
X165249868Y-112344556D01*
X165571047Y-112344518D01*
X165918717Y-112344502D01*
X166293946Y-112344498D01*
X166399999Y-112344498D01*
X166782843Y-112344500D01*
G37*
G36*
X166605237Y-117907972D02*
G01*
X166651693Y-117847412D01*
X166665150Y-117834382D01*
X166736298Y-117785690D01*
X166819232Y-117755886D01*
X166907221Y-117745136D01*
X166993537Y-117753605D01*
X167071449Y-117781457D01*
X167128639Y-117823049D01*
X167174618Y-117888495D01*
X167202087Y-117971349D01*
X167209753Y-118065791D01*
X167200526Y-118146959D01*
X167191491Y-118192136D01*
X166758277Y-118192136D01*
X166768051Y-118231891D01*
X166793453Y-118294371D01*
X166834843Y-118334377D01*
X166873312Y-118350359D01*
X166930476Y-118362760D01*
X166976696Y-118361654D01*
X167026750Y-118345865D01*
X167048390Y-118336434D01*
X167087335Y-118320917D01*
X167115066Y-118313807D01*
X167121776Y-118314369D01*
X167133582Y-118330461D01*
X167151200Y-118363555D01*
X167159396Y-118381028D01*
X167175335Y-118418331D01*
X167179044Y-118438954D01*
X167170422Y-118452462D01*
X167158543Y-118461675D01*
X167101291Y-118490509D01*
X167025437Y-118510768D01*
X166940275Y-118521485D01*
X166855096Y-118521693D01*
X166779195Y-118510423D01*
X166756426Y-118503548D01*
X166682313Y-118464857D01*
X166626709Y-118407336D01*
X166588600Y-118329277D01*
X166566969Y-118228973D01*
X166562398Y-118177139D01*
X166562055Y-118067946D01*
X166562982Y-118062028D01*
X166765420Y-118062028D01*
X167025241Y-118062028D01*
X167016034Y-118015993D01*
X166995320Y-117960208D01*
X166958934Y-117928043D01*
X166904548Y-117917468D01*
X166903045Y-117917463D01*
X166845822Y-117930742D01*
X166800364Y-117966606D01*
X166773835Y-118019095D01*
X166772259Y-118026255D01*
X166765420Y-118062028D01*
X166562982Y-118062028D01*
X166575847Y-117979853D01*
X166605237Y-117907972D01*
G37*
G36*
X168687109Y-117903549D02*
G01*
X168688457Y-118029914D01*
X168690047Y-118130240D01*
X168692445Y-118207398D01*
X168696218Y-118264261D01*
X168701934Y-118303699D01*
X168710161Y-118328585D01*
X168721465Y-118341790D01*
X168736413Y-118346187D01*
X168755574Y-118344646D01*
X168773570Y-118341218D01*
X168798918Y-118338397D01*
X168814546Y-118346218D01*
X168824090Y-118370255D01*
X168831187Y-118416082D01*
X168833105Y-118432478D01*
X168835869Y-118470684D01*
X168828235Y-118490646D01*
X168803696Y-118502771D01*
X168785635Y-118508374D01*
X168720690Y-118520815D01*
X168651224Y-118523045D01*
X168588611Y-118515363D01*
X168551043Y-118502247D01*
X168514301Y-118466688D01*
X168496912Y-118426930D01*
X168492693Y-118396932D01*
X168489026Y-118341199D01*
X168486009Y-118262906D01*
X168483736Y-118165228D01*
X168482304Y-118051339D01*
X168481810Y-117928305D01*
X168481730Y-117483769D01*
X168682869Y-117483769D01*
X168687109Y-117903549D01*
G37*
G36*
X166559269Y-108451642D02*
G01*
X166707779Y-108458536D01*
X166835457Y-108469806D01*
X167162004Y-108522251D01*
X167479304Y-108601642D01*
X167786063Y-108707126D01*
X168080987Y-108837850D01*
X168362782Y-108992963D01*
X168630153Y-109171612D01*
X168881807Y-109372945D01*
X169116449Y-109596109D01*
X169332785Y-109840252D01*
X169529521Y-110104522D01*
X169679577Y-110342974D01*
X169759837Y-110492182D01*
X169838735Y-110659236D01*
X169913037Y-110835980D01*
X169979508Y-111014254D01*
X170034915Y-111185900D01*
X170076022Y-111342759D01*
X170076163Y-111343388D01*
X170097992Y-111440969D01*
X162701710Y-111440969D01*
X162722271Y-111350616D01*
X162765963Y-111185096D01*
X162823872Y-111005780D01*
X162892490Y-110821716D01*
X162968305Y-110641947D01*
X163047808Y-110475518D01*
X163098657Y-110380796D01*
X163274595Y-110098293D01*
X163471444Y-109834931D01*
X163687904Y-109591578D01*
X163922671Y-109369102D01*
X164174443Y-109168372D01*
X164441920Y-108990254D01*
X164723799Y-108835619D01*
X165018778Y-108705333D01*
X165325555Y-108600264D01*
X165642829Y-108521281D01*
X165964542Y-108469806D01*
X166094249Y-108458404D01*
X166242965Y-108451576D01*
X166401152Y-108449322D01*
X166559269Y-108451642D01*
G37*
%TD*%
D10*
%TO.C,T1*%
X239961444Y-100141167D03*
X242161444Y-107541167D03*
X239961444Y-107541167D03*
D11*
X241061444Y-102341167D03*
D10*
X242161444Y-100141167D03*
D11*
X241061444Y-105341167D03*
D12*
X238986444Y-106091167D03*
X238986444Y-103091167D03*
X238986444Y-101591167D03*
%TD*%
D13*
%TO.C,B1*%
X233061447Y-107041164D03*
X233061447Y-100641164D03*
%TD*%
D14*
%TO.C,S36*%
X234358669Y-133463698D03*
X240668009Y-124453026D03*
D15*
X237513339Y-128958362D03*
D16*
X243493999Y-127042192D03*
X237758235Y-135233713D03*
X242346336Y-132342463D03*
X242346336Y-132342463D03*
%TD*%
D15*
%TO.C,S16*%
X175061439Y-71591167D03*
D14*
X169561439Y-71591167D03*
X180561439Y-71591167D03*
D16*
X180061439Y-75391167D03*
X170061439Y-75391167D03*
X175061439Y-77491167D03*
X175061439Y-77491167D03*
%TD*%
D17*
%TO.C,S19*%
X188061453Y-90791169D03*
X193061453Y-88591169D03*
X198061453Y-90791169D03*
D14*
X198561453Y-94541169D03*
D15*
X193061453Y-94541169D03*
D14*
X187561453Y-94541169D03*
D17*
X193061453Y-88591169D03*
D18*
X196336453Y-88591169D03*
X184786453Y-90791169D03*
%TD*%
D19*
%TO.C,D6*%
X155411442Y-62941168D03*
X158711442Y-62941168D03*
%TD*%
D14*
%TO.C,S28*%
X216561440Y-80091175D03*
D15*
X211061440Y-80091175D03*
D14*
X205561440Y-80091175D03*
D16*
X206061440Y-83891175D03*
X216061440Y-83891175D03*
X211061440Y-85991175D03*
X211061440Y-85991175D03*
%TD*%
D17*
%TO.C,S7*%
X157061442Y-87741167D03*
X157061442Y-87741167D03*
X162061442Y-89941167D03*
D14*
X162561442Y-93691167D03*
D17*
X152061442Y-89941167D03*
D15*
X157061442Y-93691167D03*
D14*
X151561442Y-93691167D03*
D18*
X160336442Y-87741167D03*
X148786442Y-89941167D03*
%TD*%
D20*
%TO.C,D16*%
X191134474Y-122284995D03*
X194421916Y-122572609D03*
%TD*%
D14*
%TO.C,S25*%
X216561452Y-97091167D03*
D17*
X211061452Y-91141167D03*
X216061452Y-93341167D03*
D15*
X211061452Y-97091167D03*
D14*
X205561452Y-97091167D03*
D17*
X206061452Y-93341167D03*
X211061452Y-91141167D03*
D18*
X214336452Y-91141167D03*
X202786452Y-93341167D03*
%TD*%
D19*
%TO.C,D1*%
X137411446Y-108841166D03*
X140711446Y-108841166D03*
%TD*%
D15*
%TO.C,S13*%
X175061443Y-88591173D03*
D17*
X180061443Y-84841173D03*
D14*
X169561443Y-88591173D03*
D17*
X175061443Y-82641173D03*
X175061443Y-82641173D03*
X170061443Y-84841173D03*
D14*
X180561443Y-88591173D03*
D18*
X178336443Y-82641173D03*
X166786443Y-84841173D03*
%TD*%
D19*
%TO.C,D8*%
X173411442Y-74841174D03*
X176711442Y-74841174D03*
%TD*%
%TO.C,D3*%
X137411449Y-74841168D03*
X140711449Y-74841168D03*
%TD*%
%TO.C,D5*%
X155411445Y-79941170D03*
X158711445Y-79941170D03*
%TD*%
D15*
%TO.C,S18*%
X175061444Y-54591168D03*
D14*
X180561444Y-54591168D03*
X169561444Y-54591168D03*
D16*
X180061444Y-58391168D03*
X170061444Y-58391168D03*
X175061444Y-60491168D03*
X175061444Y-60491168D03*
%TD*%
D17*
%TO.C,S5*%
X144061438Y-67841166D03*
D14*
X133561438Y-71591166D03*
X144561438Y-71591166D03*
D15*
X139061438Y-71591166D03*
D17*
X134061438Y-67841166D03*
X139061438Y-65641166D03*
X139061438Y-65641166D03*
D18*
X142336438Y-65641166D03*
X130786438Y-67841166D03*
%TD*%
D14*
%TO.C,S33*%
X212030762Y-122107749D03*
D15*
X217199071Y-123988860D03*
D14*
X222367380Y-125869971D03*
D17*
X219234091Y-118397689D03*
X223180110Y-122175113D03*
X213783183Y-118754912D03*
X219234091Y-118397689D03*
D21*
X222311584Y-119517805D03*
X210705690Y-117634796D03*
%TD*%
D22*
%TO.C,D18*%
X239229194Y-132174088D03*
X241121996Y-129470886D03*
%TD*%
D14*
%TO.C,S20*%
X187561453Y-94541169D03*
D15*
X193061453Y-94541169D03*
D14*
X198561453Y-94541169D03*
D16*
X188061453Y-98341169D03*
X198061453Y-98341169D03*
X193061453Y-100441169D03*
X193061453Y-100441169D03*
%TD*%
D14*
%TO.C,S17*%
X180561444Y-54591168D03*
D17*
X175061444Y-48641168D03*
D15*
X175061444Y-54591168D03*
D17*
X170061444Y-50841168D03*
X175061444Y-48641168D03*
X180061444Y-50841168D03*
D14*
X169561444Y-54591168D03*
D18*
X178336444Y-48641168D03*
X166786444Y-50841168D03*
%TD*%
D15*
%TO.C,S21*%
X193061439Y-77541169D03*
D17*
X193061439Y-71591169D03*
D14*
X187561439Y-77541169D03*
D17*
X193061439Y-71591169D03*
X188061439Y-73791169D03*
X198061439Y-73791169D03*
D14*
X198561439Y-77541169D03*
D18*
X196336439Y-71591169D03*
X184786439Y-73791169D03*
%TD*%
D23*
%TO.C,PAD1*%
X226561441Y-105591169D03*
%TD*%
D17*
%TO.C,S3*%
X139061447Y-82641163D03*
X139061447Y-82641163D03*
D14*
X144561447Y-88591163D03*
D17*
X134061447Y-84841163D03*
D14*
X133561447Y-88591163D03*
D15*
X139061447Y-88591163D03*
D17*
X144061447Y-84841163D03*
D18*
X142336447Y-82641163D03*
X130786447Y-84841163D03*
%TD*%
D19*
%TO.C,D12*%
X191411444Y-63791175D03*
X194711444Y-63791175D03*
%TD*%
D14*
%TO.C,S1*%
X133561440Y-105591160D03*
D17*
X139061440Y-99641160D03*
D15*
X139061440Y-105591160D03*
D17*
X139061440Y-99641160D03*
D14*
X144561440Y-105591160D03*
D17*
X144061440Y-101841160D03*
X134061440Y-101841160D03*
D18*
X142336440Y-99641160D03*
X130786440Y-101841160D03*
%TD*%
D17*
%TO.C,S15*%
X175061439Y-65641167D03*
X180061439Y-67841167D03*
X170061439Y-67841167D03*
D14*
X169561439Y-71591167D03*
X180561439Y-71591167D03*
D17*
X175061439Y-65641167D03*
D15*
X175061439Y-71591167D03*
D18*
X178336439Y-65641167D03*
X166786439Y-67841167D03*
%TD*%
D14*
%TO.C,S26*%
X216561452Y-97091167D03*
D15*
X211061452Y-97091167D03*
D14*
X205561452Y-97091167D03*
D16*
X216061452Y-100891167D03*
X206061452Y-100891167D03*
X211061452Y-102991167D03*
X211061452Y-102991167D03*
%TD*%
D24*
%TO.C,MCU1*%
X238681438Y-67121172D03*
D25*
X238681438Y-69661172D03*
X238681438Y-72201172D03*
X238681438Y-74741172D03*
X238681438Y-77281172D03*
X238681438Y-79821172D03*
X238681438Y-82361172D03*
X238681438Y-84901172D03*
X238681438Y-87441172D03*
X238681438Y-89981172D03*
X238681438Y-92521172D03*
X238681438Y-95061172D03*
X223441438Y-67121172D03*
X223441438Y-69661172D03*
X223441438Y-72201172D03*
X223441438Y-74741172D03*
X223441438Y-77281172D03*
X223441438Y-79821172D03*
X223441438Y-82361172D03*
X223441438Y-84901172D03*
X223441438Y-87441172D03*
X223441438Y-89981172D03*
X223441438Y-92521172D03*
X223441438Y-95061172D03*
%TD*%
D17*
%TO.C,S35*%
X231573637Y-130903211D03*
D15*
X237513339Y-128958362D03*
D17*
X232639384Y-125545582D03*
X232639384Y-125545582D03*
D14*
X234358669Y-133463698D03*
D17*
X237309401Y-122711690D03*
D14*
X240668009Y-124453026D03*
D26*
X234517847Y-122862859D03*
X229695174Y-133585934D03*
%TD*%
D14*
%TO.C,S24*%
X187561438Y-60541167D03*
D15*
X193061438Y-60541167D03*
D14*
X198561438Y-60541167D03*
D16*
X198061438Y-64341167D03*
X188061438Y-64341167D03*
X193061438Y-66441167D03*
X193061438Y-66441167D03*
%TD*%
D14*
%TO.C,S2*%
X144561440Y-105591160D03*
X133561440Y-105591160D03*
D15*
X139061440Y-105591160D03*
D16*
X144061440Y-109391160D03*
X134061440Y-109391160D03*
X139061440Y-111491160D03*
X139061440Y-111491160D03*
%TD*%
D15*
%TO.C,S27*%
X211061440Y-80091175D03*
D14*
X205561440Y-80091175D03*
D17*
X216061440Y-76341175D03*
X206061440Y-76341175D03*
X211061440Y-74141175D03*
D14*
X216561440Y-80091175D03*
D17*
X211061440Y-74141175D03*
D18*
X214336440Y-74141175D03*
X202786440Y-76341175D03*
%TD*%
D17*
%TO.C,S31*%
X188407305Y-115019666D03*
D15*
X193061444Y-119191175D03*
D14*
X198540515Y-119670532D03*
D17*
X193580021Y-113263817D03*
X198369252Y-115891224D03*
D14*
X187582373Y-118711818D03*
D17*
X193580021Y-113263817D03*
D27*
X196842558Y-113549252D03*
X185144767Y-114734231D03*
%TD*%
D15*
%TO.C,S4*%
X139061447Y-88591163D03*
D14*
X133561447Y-88591163D03*
X144561447Y-88591163D03*
D16*
X134061447Y-92391163D03*
X144061447Y-92391163D03*
X139061447Y-94491163D03*
X139061447Y-94491163D03*
%TD*%
D14*
%TO.C,S22*%
X187561439Y-77541169D03*
X198561439Y-77541169D03*
D15*
X193061439Y-77541169D03*
D16*
X188061439Y-81341169D03*
X198061439Y-81341169D03*
X193061439Y-83441169D03*
X193061439Y-83441169D03*
%TD*%
D15*
%TO.C,S14*%
X175061443Y-88591173D03*
D14*
X169561443Y-88591173D03*
X180561443Y-88591173D03*
D16*
X170061443Y-92391173D03*
X180061443Y-92391173D03*
X175061443Y-94491173D03*
X175061443Y-94491173D03*
%TD*%
D19*
%TO.C,D15*%
X209411447Y-66341168D03*
X212711447Y-66341168D03*
%TD*%
%TO.C,D13*%
X209411444Y-100341176D03*
X212711444Y-100341176D03*
%TD*%
D28*
%TO.C,D17*%
X214537016Y-126478525D03*
X217638002Y-127607191D03*
%TD*%
D15*
%TO.C,S8*%
X157061442Y-93691167D03*
D14*
X151561442Y-93691167D03*
X162561442Y-93691167D03*
D16*
X162061442Y-97491167D03*
X152061442Y-97491167D03*
X157061442Y-99591167D03*
X157061442Y-99591167D03*
%TD*%
D14*
%TO.C,S32*%
X198540515Y-119670532D03*
D15*
X193061444Y-119191175D03*
D14*
X187582373Y-118711818D03*
D16*
X197711226Y-123412494D03*
X187749279Y-122540936D03*
X192547225Y-125068724D03*
X192547225Y-125068724D03*
%TD*%
D19*
%TO.C,D11*%
X191411444Y-80791162D03*
X194711444Y-80791162D03*
%TD*%
D17*
%TO.C,S11*%
X152061439Y-55941165D03*
X157061439Y-53741165D03*
D14*
X151561439Y-59691165D03*
D17*
X162061439Y-55941165D03*
D14*
X162561439Y-59691165D03*
D17*
X157061439Y-53741165D03*
D15*
X157061439Y-59691165D03*
D18*
X160336439Y-53741165D03*
X148786439Y-55941165D03*
%TD*%
D11*
%TO.C,T2*%
X241061444Y-105341167D03*
X241061444Y-102341167D03*
%TD*%
D17*
%TO.C,S23*%
X188061438Y-56791167D03*
X198061438Y-56791167D03*
D15*
X193061438Y-60541167D03*
D14*
X198561438Y-60541167D03*
X187561438Y-60541167D03*
D17*
X193061438Y-54591167D03*
X193061438Y-54591167D03*
D18*
X196336438Y-54591167D03*
X184786438Y-56791167D03*
%TD*%
D23*
%TO.C,PAD2*%
X223561448Y-105591175D03*
%TD*%
D19*
%TO.C,D14*%
X209411440Y-83341165D03*
X212711440Y-83341165D03*
%TD*%
%TO.C,D7*%
X173411437Y-91841170D03*
X176711437Y-91841170D03*
%TD*%
%TO.C,D10*%
X191411448Y-97791167D03*
X194711448Y-97791167D03*
%TD*%
D14*
%TO.C,S30*%
X216561446Y-63091168D03*
D15*
X211061446Y-63091168D03*
D14*
X205561446Y-63091168D03*
D16*
X206061446Y-66891168D03*
X216061446Y-66891168D03*
X211061446Y-68991168D03*
X211061446Y-68991168D03*
%TD*%
D14*
%TO.C,S9*%
X162561445Y-76691170D03*
X151561445Y-76691170D03*
D17*
X162061445Y-72941170D03*
D15*
X157061445Y-76691170D03*
D17*
X157061445Y-70741170D03*
X157061445Y-70741170D03*
X152061445Y-72941170D03*
D18*
X160336445Y-70741170D03*
X148786445Y-72941170D03*
%TD*%
D14*
%TO.C,S34*%
X222367380Y-125869971D03*
D15*
X217199071Y-123988860D03*
D14*
X212030762Y-122107749D03*
D16*
X211200931Y-125849591D03*
X220597858Y-129269793D03*
X215181152Y-129533046D03*
X215181152Y-129533046D03*
%TD*%
D15*
%TO.C,S12*%
X157061439Y-59691165D03*
D14*
X162561439Y-59691165D03*
X151561439Y-59691165D03*
D16*
X152061439Y-63491165D03*
X162061439Y-63491165D03*
X157061439Y-65591165D03*
X157061439Y-65591165D03*
%TD*%
D19*
%TO.C,D4*%
X155411444Y-96941166D03*
X158711444Y-96941166D03*
%TD*%
%TO.C,D9*%
X173411442Y-57841165D03*
X176711442Y-57841165D03*
%TD*%
%TO.C,D2*%
X137411440Y-91841171D03*
X140711440Y-91841171D03*
%TD*%
D14*
%TO.C,S10*%
X151561445Y-76691170D03*
D15*
X157061445Y-76691170D03*
D14*
X162561445Y-76691170D03*
D16*
X152061445Y-80491170D03*
X162061445Y-80491170D03*
X157061445Y-82591170D03*
X157061445Y-82591170D03*
%TD*%
D14*
%TO.C,S29*%
X205561446Y-63091168D03*
D17*
X211061446Y-57141168D03*
X211061446Y-57141168D03*
X206061446Y-59341168D03*
D15*
X211061446Y-63091168D03*
D17*
X216061446Y-59341168D03*
D14*
X216561446Y-63091168D03*
D18*
X214336446Y-57141168D03*
X202786446Y-59341168D03*
%TD*%
D14*
%TO.C,S6*%
X144561438Y-71591166D03*
D15*
X139061438Y-71591166D03*
D14*
X133561438Y-71591166D03*
D16*
X134061438Y-75391166D03*
X144061438Y-75391166D03*
X139061438Y-77491166D03*
X139061438Y-77491166D03*
%TD*%
D24*
%TO.C,MCU2*%
X225941442Y-68371168D03*
D25*
X225941442Y-70911168D03*
X225941442Y-73451168D03*
X225941442Y-75991168D03*
X225941442Y-78531168D03*
X225941442Y-81071168D03*
X225941442Y-83611168D03*
X225941442Y-86151168D03*
X225941442Y-88691168D03*
X225941442Y-91231168D03*
X225941442Y-93771168D03*
X225941442Y-96311168D03*
X241181442Y-68371168D03*
X241181442Y-70911168D03*
X241181442Y-73451168D03*
X241181442Y-75991168D03*
X241181442Y-78531168D03*
X241181442Y-81071168D03*
X241181442Y-83611168D03*
X241181442Y-86151168D03*
X241181442Y-88691168D03*
X241181442Y-91231168D03*
X241181442Y-93771168D03*
X241181442Y-96311168D03*
%TD*%
M02*
