%TF.GenerationSoftware,KiCad,Pcbnew,(6.0.7-1)-1*%
%TF.CreationDate,2022-09-04T19:21:53+10:00*%
%TF.ProjectId,Dusk 36,4475736b-2033-4362-9e6b-696361645f70,v1.0.0*%
%TF.SameCoordinates,Original*%
%TF.FileFunction,Paste,Top*%
%TF.FilePolarity,Positive*%
%FSLAX46Y46*%
G04 Gerber Fmt 4.6, Leading zero omitted, Abs format (unit mm)*
G04 Created by KiCad (PCBNEW (6.0.7-1)-1) date 2022-09-04 19:21:53*
%MOMM*%
%LPD*%
G01*
G04 APERTURE LIST*
G04 Aperture macros list*
%AMRotRect*
0 Rectangle, with rotation*
0 The origin of the aperture is its center*
0 $1 length*
0 $2 width*
0 $3 Rotation angle, in degrees counterclockwise*
0 Add horizontal line*
21,1,$1,$2,0,0,$3*%
G04 Aperture macros list end*
%ADD10R,0.900000X0.900000*%
%ADD11R,1.250000X0.900000*%
%ADD12R,2.600000X2.600000*%
%ADD13R,0.900000X1.200000*%
%ADD14RotRect,0.900000X1.200000X355.000000*%
%ADD15RotRect,2.600000X2.600000X340.000000*%
%ADD16RotRect,0.900000X1.200000X55.000000*%
%ADD17R,1.500000X1.500000*%
%ADD18RotRect,2.600000X2.600000X55.000000*%
%ADD19RotRect,2.600000X2.600000X355.000000*%
%ADD20RotRect,0.900000X1.200000X340.000000*%
G04 APERTURE END LIST*
D10*
%TO.C,T1*%
X239961444Y-100141167D03*
X242161444Y-107541167D03*
X239961444Y-107541167D03*
X242161444Y-100141167D03*
D11*
X238986444Y-106091167D03*
X238986444Y-103091167D03*
X238986444Y-101591167D03*
%TD*%
D12*
%TO.C,S19*%
X196336453Y-88591169D03*
X184786453Y-90791169D03*
%TD*%
D13*
%TO.C,D6*%
X155411442Y-62941168D03*
X158711442Y-62941168D03*
%TD*%
D12*
%TO.C,S7*%
X160336442Y-87741167D03*
X148786442Y-89941167D03*
%TD*%
D14*
%TO.C,D16*%
X191134474Y-122284995D03*
X194421916Y-122572609D03*
%TD*%
D12*
%TO.C,S25*%
X214336452Y-91141167D03*
X202786452Y-93341167D03*
%TD*%
D13*
%TO.C,D1*%
X137411446Y-108841166D03*
X140711446Y-108841166D03*
%TD*%
D12*
%TO.C,S13*%
X178336443Y-82641173D03*
X166786443Y-84841173D03*
%TD*%
D13*
%TO.C,D8*%
X173411442Y-74841174D03*
X176711442Y-74841174D03*
%TD*%
%TO.C,D3*%
X137411449Y-74841168D03*
X140711449Y-74841168D03*
%TD*%
%TO.C,D5*%
X155411445Y-79941170D03*
X158711445Y-79941170D03*
%TD*%
D12*
%TO.C,S5*%
X142336438Y-65641166D03*
X130786438Y-67841166D03*
%TD*%
D15*
%TO.C,S33*%
X222311584Y-119517805D03*
X210705690Y-117634796D03*
%TD*%
D16*
%TO.C,D18*%
X239229194Y-132174088D03*
X241121996Y-129470886D03*
%TD*%
D12*
%TO.C,S17*%
X178336444Y-48641168D03*
X166786444Y-50841168D03*
%TD*%
%TO.C,S21*%
X196336439Y-71591169D03*
X184786439Y-73791169D03*
%TD*%
D17*
%TO.C,PAD1*%
X226561441Y-105591169D03*
%TD*%
D12*
%TO.C,S3*%
X142336447Y-82641163D03*
X130786447Y-84841163D03*
%TD*%
D13*
%TO.C,D12*%
X191411444Y-63791175D03*
X194711444Y-63791175D03*
%TD*%
D12*
%TO.C,S1*%
X142336440Y-99641160D03*
X130786440Y-101841160D03*
%TD*%
%TO.C,S15*%
X178336439Y-65641167D03*
X166786439Y-67841167D03*
%TD*%
D18*
%TO.C,S35*%
X234517847Y-122862859D03*
X229695174Y-133585934D03*
%TD*%
D12*
%TO.C,S27*%
X214336440Y-74141175D03*
X202786440Y-76341175D03*
%TD*%
D19*
%TO.C,S31*%
X196842558Y-113549252D03*
X185144767Y-114734231D03*
%TD*%
D13*
%TO.C,D15*%
X209411447Y-66341168D03*
X212711447Y-66341168D03*
%TD*%
%TO.C,D13*%
X209411444Y-100341176D03*
X212711444Y-100341176D03*
%TD*%
D20*
%TO.C,D17*%
X214537016Y-126478525D03*
X217638002Y-127607191D03*
%TD*%
D13*
%TO.C,D11*%
X191411444Y-80791162D03*
X194711444Y-80791162D03*
%TD*%
D12*
%TO.C,S11*%
X160336439Y-53741165D03*
X148786439Y-55941165D03*
%TD*%
%TO.C,S23*%
X196336438Y-54591167D03*
X184786438Y-56791167D03*
%TD*%
D17*
%TO.C,PAD2*%
X223561448Y-105591175D03*
%TD*%
D13*
%TO.C,D14*%
X209411440Y-83341165D03*
X212711440Y-83341165D03*
%TD*%
%TO.C,D7*%
X173411437Y-91841170D03*
X176711437Y-91841170D03*
%TD*%
%TO.C,D10*%
X191411448Y-97791167D03*
X194711448Y-97791167D03*
%TD*%
D12*
%TO.C,S9*%
X160336445Y-70741170D03*
X148786445Y-72941170D03*
%TD*%
D13*
%TO.C,D4*%
X155411444Y-96941166D03*
X158711444Y-96941166D03*
%TD*%
%TO.C,D9*%
X173411442Y-57841165D03*
X176711442Y-57841165D03*
%TD*%
%TO.C,D2*%
X137411440Y-91841171D03*
X140711440Y-91841171D03*
%TD*%
D12*
%TO.C,S29*%
X214336446Y-57141168D03*
X202786446Y-59341168D03*
%TD*%
M02*
