M48
; DRILL file {KiCad (6.0.7-1)-1} date Sunday, 04 September 2022 at 07:21:50 pm
; FORMAT={-:-/ absolute / metric / decimal}
; #@! TF.CreationDate,2022-09-04T19:21:50+10:00
; #@! TF.GenerationSoftware,Kicad,Pcbnew,(6.0.7-1)-1
; #@! TF.FileFunction,Plated,1,2,PTH
FMAT,2
METRIC
; #@! TA.AperFunction,Plated,PTH,ViaDrill
T1C0.300
; #@! TA.AperFunction,Plated,PTH,ComponentDrill
T2C0.300
; #@! TA.AperFunction,Plated,PTH,ViaDrill
T3C0.400
; #@! TA.AperFunction,Plated,PTH,ComponentDrill
T4C1.092
; #@! TA.AperFunction,Plated,PTH,ComponentDrill
T5C1.200
; #@! TA.AperFunction,Plated,PTH,ComponentDrill
T6C1.270
%
G90
G05
T1
X141.159Y-101.516
X141.159Y-67.516
X141.159Y-84.516
X159.151Y-55.624
X159.151Y-72.624
X159.159Y-89.616
X177.151Y-84.524
X177.159Y-67.516
X177.159Y-50.516
X180.061Y-95.022
X185.148Y-100.925
X185.732Y-100.342
X185.924Y-101.118
X189.956Y-101.118
X195.159Y-73.466
X195.159Y-56.466
X195.159Y-90.466
X195.508Y-115.361
X206.061Y-103.412
X213.151Y-93.024
X213.159Y-59.016
X213.159Y-76.016
X220.55Y-120.892
X226.561Y-103.994
X235.378Y-124.904
X240.073Y-103.833
X240.115Y-106.091
T2
X138.611Y-91.841
X138.611Y-108.841
X138.611Y-74.841
X139.511Y-91.841
X139.511Y-108.841
X139.511Y-74.841
X156.611Y-62.941
X156.611Y-96.941
X156.611Y-79.941
X157.511Y-62.941
X157.511Y-96.941
X157.511Y-79.941
X174.611Y-91.841
X174.611Y-57.841
X174.611Y-74.841
X175.511Y-91.841
X175.511Y-57.841
X175.511Y-74.841
X192.33Y-122.39
X192.611Y-63.791
X192.611Y-80.791
X192.611Y-97.791
X193.226Y-122.468
X193.511Y-63.791
X193.511Y-80.791
X193.511Y-97.791
X210.611Y-83.341
X210.611Y-100.341
X210.611Y-66.341
X211.511Y-83.341
X211.511Y-100.341
X211.511Y-66.341
X215.665Y-126.889
X216.51Y-127.197
X239.917Y-131.191
X240.434Y-130.454
T3
X207.882Y-62.081
T4
X223.441Y-67.121
X223.441Y-69.661
X223.441Y-72.201
X223.441Y-74.741
X223.441Y-77.281
X223.441Y-79.821
X223.441Y-82.361
X223.441Y-84.901
X223.441Y-87.441
X223.441Y-89.981
X223.441Y-92.521
X223.441Y-95.061
X225.941Y-68.371
X225.941Y-70.911
X225.941Y-73.451
X225.941Y-75.991
X225.941Y-78.531
X225.941Y-81.071
X225.941Y-83.611
X225.941Y-86.151
X225.941Y-88.691
X225.941Y-91.231
X225.941Y-93.771
X225.941Y-96.311
X238.681Y-67.121
X238.681Y-69.661
X238.681Y-72.201
X238.681Y-74.741
X238.681Y-77.281
X238.681Y-79.821
X238.681Y-82.361
X238.681Y-84.901
X238.681Y-87.441
X238.681Y-89.981
X238.681Y-92.521
X238.681Y-95.061
X241.181Y-68.371
X241.181Y-70.911
X241.181Y-73.451
X241.181Y-75.991
X241.181Y-78.531
X241.181Y-81.071
X241.181Y-83.611
X241.181Y-86.151
X241.181Y-88.691
X241.181Y-91.231
X241.181Y-93.771
X241.181Y-96.311
T5
X233.061Y-100.641
X233.061Y-107.041
T6
X134.061Y-75.391
X134.061Y-109.391
X134.061Y-92.391
X139.061Y-77.491
X139.061Y-77.491
X139.061Y-111.491
X139.061Y-111.491
X139.061Y-94.491
X139.061Y-94.491
X144.061Y-75.391
X144.061Y-109.391
X144.061Y-92.391
X152.061Y-63.491
X152.061Y-97.491
X152.061Y-80.491
X157.061Y-65.591
X157.061Y-65.591
X157.061Y-99.591
X157.061Y-99.591
X157.061Y-82.591
X157.061Y-82.591
X162.061Y-63.491
X162.061Y-97.491
X162.061Y-80.491
X170.061Y-75.391
X170.061Y-92.391
X170.061Y-58.391
X175.061Y-77.491
X175.061Y-77.491
X175.061Y-94.491
X175.061Y-94.491
X175.061Y-60.491
X175.061Y-60.491
X180.061Y-75.391
X180.061Y-92.391
X180.061Y-58.391
X187.749Y-122.541
X188.061Y-64.341
X188.061Y-81.341
X188.061Y-98.341
X192.547Y-125.069
X192.547Y-125.069
X193.061Y-66.441
X193.061Y-66.441
X193.061Y-83.441
X193.061Y-83.441
X193.061Y-100.441
X193.061Y-100.441
X197.711Y-123.412
X198.061Y-64.341
X198.061Y-81.341
X198.061Y-98.341
X206.061Y-83.891
X206.061Y-66.891
X206.061Y-100.891
X211.061Y-85.991
X211.061Y-85.991
X211.061Y-68.991
X211.061Y-68.991
X211.061Y-102.991
X211.061Y-102.991
X211.201Y-125.85
X215.181Y-129.533
X215.181Y-129.533
X216.061Y-83.891
X216.061Y-66.891
X216.061Y-100.891
X220.598Y-129.27
X237.758Y-135.234
X242.346Y-132.342
X242.346Y-132.342
X243.494Y-127.042
T0
M30
